<?xml version="1.0" encoding="UTF-8"?>
<svg id="Layer_1" data-name="Layer 1" xmlns="http://www.w3.org/2000/svg" version="1.1" viewBox="0 0 841.89 280.33">
  <defs>
    <style>
      .cls-1 {
        fill: #000;
        font-family: MyriadPro-Regular, 'Myriad Pro';
        font-size: 31.06px;
      }

      .cls-2, .cls-3, .cls-4, .cls-5, .cls-6, .cls-7, .cls-8, .cls-9 {
        stroke-width: 0px;
      }

      .cls-2, .cls-4 {
        fill: #002d72;
      }

      .cls-3, .cls-4, .cls-9 {
        fill-rule: evenodd;
      }

      .cls-3, .cls-6 {
        fill: #093;
      }

      .cls-5 {
        fill: #053775;
      }

      .cls-7, .cls-9 {
        fill: #c03;
      }

      .cls-8 {
        fill: #e21c32;
      }
    </style>
  </defs>
  <circle class="cls-2" cx="210.66" cy="436.48" r="76.07"/>
  <circle class="cls-6" cx="405.47" cy="436.48" r="76.07"/>
  <circle class="cls-7" cx="600.28" cy="436.48" r="76.07"/>
  <g>
    <path class="cls-5" d="M142.07,529.05h-2.52v-.67l.67-.31v-3.58l-.67-.31v-.67h2.52v.67l-.67.31v3.58l.67.31v.67Z"/>
    <path class="cls-5" d="M147.92,529.05h-1.49l-2.41-4.19h-.03c.01.26.02.53.03.79.01.26.02.53.03.79v2.6h-1.05v-5.53h1.48l2.4,4.15h.02c-.01-.25-.02-.51-.03-.76-.01-.25-.02-.51-.02-.77v-2.62h1.05v5.53Z"/>
    <path class="cls-5" d="M153.91,526.23c0,.94-.27,1.64-.8,2.11-.53.47-1.27.71-2.22.71h-1.57v-5.53h1.74c.58,0,1.08.1,1.51.31.43.21.76.51.99.91.24.4.35.9.35,1.49ZM152.69,526.26c0-.61-.13-1.06-.4-1.35-.27-.29-.66-.43-1.17-.43h-.63v3.6h.5c1.13,0,1.7-.61,1.7-1.82Z"/>
    <path class="cls-5" d="M160.07,526.28c0,.57-.09,1.07-.28,1.5-.19.43-.48.76-.87,1s-.88.36-1.48.36-1.09-.12-1.48-.36-.68-.57-.87-1-.28-.93-.28-1.5.09-1.07.28-1.5.48-.75.87-.99.89-.35,1.49-.35,1.09.12,1.48.35.68.57.86.99c.19.43.28.93.28,1.5ZM156.04,526.28c0,.58.11,1.04.33,1.37.22.33.58.5,1.07.5s.86-.17,1.08-.5c.22-.33.33-.79.33-1.37s-.11-1.03-.33-1.37c-.22-.33-.57-.5-1.07-.5s-.85.17-1.08.5c-.22.33-.33.79-.33,1.37Z"/>
    <path class="cls-5" d="M162.83,523.52c.75,0,1.31.14,1.67.41.36.27.54.69.54,1.25,0,.25-.05.47-.14.66s-.22.35-.38.48c-.16.13-.33.24-.51.32l1.63,2.41h-1.3l-1.32-2.12h-.63v2.12h-1.17v-5.53h1.61ZM162.75,524.48h-.36v1.5h.38c.39,0,.67-.06.83-.19.17-.13.25-.32.25-.57s-.09-.45-.27-.56c-.18-.11-.46-.17-.84-.17Z"/>
    <path class="cls-5" d="M169.72,529.05l-.4-1.32h-2.02l-.4,1.32h-1.26l1.95-5.56h1.43l1.96,5.56h-1.26ZM169.04,526.75l-.4-1.29c-.03-.09-.06-.2-.1-.33-.04-.13-.08-.27-.12-.41-.04-.14-.08-.26-.1-.36-.03.1-.06.23-.1.38s-.09.3-.12.43c-.04.14-.07.23-.09.29l-.4,1.29h1.44Z"/>
    <path class="cls-5" d="M174.03,529.05l-1.33-4.34h-.03c0,.1.01.26.02.46.01.21.02.43.03.67.01.24.02.45.02.64v2.57h-1.05v-5.53h1.6l1.31,4.23h.02l1.39-4.23h1.6v5.53h-1.09v-2.62c0-.18,0-.38.01-.6,0-.23.02-.44.02-.65,0-.2.01-.36.02-.46h-.03l-1.43,4.33h-1.08Z"/>
    <path class="cls-5" d="M182.38,529.05l-.4-1.32h-2.02l-.4,1.32h-1.26l1.95-5.56h1.43l1.96,5.56h-1.26ZM181.7,526.75l-.4-1.29c-.03-.09-.06-.2-.1-.33-.04-.13-.08-.27-.12-.41-.04-.14-.08-.26-.1-.36-.03.1-.06.23-.1.38s-.09.3-.12.43c-.04.14-.07.23-.09.29l-.4,1.29h1.44Z"/>
    <path class="cls-5" d="M190.7,523.52l-1.88,5.53h-1.28l-1.88-5.53h1.19l1.04,3.29c.02.06.04.16.08.31s.08.31.12.48.07.31.09.42c.02-.11.04-.25.08-.42.04-.17.08-.33.12-.48.04-.15.07-.26.09-.31l1.05-3.29h1.19Z"/>
    <path class="cls-5" d="M194.58,529.05h-3.19v-5.53h3.19v.96h-2.02v1.22h1.88v.96h-1.88v1.43h2.02v.97Z"/>
    <path class="cls-5" d="M200.64,529.05h-1.49l-2.41-4.19h-.03c.01.26.02.53.03.79.01.26.02.53.03.79v2.6h-1.05v-5.53h1.48l2.4,4.15h.02c-.01-.25-.02-.51-.03-.76-.01-.25-.02-.51-.02-.77v-2.62h1.05v5.53Z"/>
    <path class="cls-5" d="M204.17,529.05h-1.17v-4.56h-1.5v-.98h4.18v.98h-1.5v4.56Z"/>
    <path class="cls-5" d="M211.03,523.52v3.58c0,.38-.08.73-.25,1.03-.17.31-.42.55-.76.73-.34.18-.77.27-1.28.27-.73,0-1.29-.19-1.67-.56-.38-.38-.57-.87-.57-1.48v-3.57h1.17v3.39c0,.46.09.78.28.96.19.18.46.28.83.28s.66-.1.83-.3c.17-.2.26-.52.26-.95v-3.38h1.17Z"/>
    <path class="cls-5" d="M213.99,523.52c.75,0,1.31.14,1.67.41.36.27.54.69.54,1.25,0,.25-.05.47-.14.66s-.22.35-.38.48c-.16.13-.33.24-.51.32l1.63,2.41h-1.3l-1.32-2.12h-.63v2.12h-1.17v-5.53h1.61ZM213.91,524.48h-.36v1.5h.38c.39,0,.67-.06.83-.19.17-.13.25-.32.25-.57s-.09-.45-.27-.56c-.18-.11-.46-.17-.84-.17Z"/>
    <path class="cls-5" d="M220.68,529.05h-3.19v-5.53h3.19v.96h-2.02v1.22h1.88v.96h-1.88v1.43h2.02v.97Z"/>
    <path class="cls-5" d="M225.1,527.52c0,.49-.18.88-.53,1.17s-.86.44-1.51.44c-.58,0-1.11-.11-1.57-.33v-1.09c.26.11.54.22.82.31.28.1.56.14.84.14s.49-.06.62-.17c.12-.11.18-.25.18-.42,0-.14-.05-.26-.14-.36-.1-.1-.22-.19-.38-.28-.16-.08-.34-.18-.55-.28-.13-.06-.27-.14-.42-.22s-.29-.19-.43-.32c-.14-.13-.25-.28-.34-.46-.09-.18-.13-.4-.13-.65,0-.5.17-.88.5-1.16s.79-.41,1.37-.41c.29,0,.56.03.82.1s.53.16.82.29l-.38.91c-.25-.1-.48-.18-.68-.24s-.41-.08-.62-.08-.39.05-.51.15c-.12.1-.18.24-.18.4,0,.2.09.35.26.46.18.11.44.25.78.42.28.13.53.27.72.42.2.15.35.32.46.51s.16.44.16.73Z"/>
    <path class="cls-5" d="M228.12,523.52h1.72c.73,0,1.29.1,1.67.31.38.21.57.57.57,1.09,0,.31-.07.58-.22.8-.15.22-.36.35-.63.4v.04c.18.04.35.11.5.2s.27.22.36.4c.09.18.13.41.13.7,0,.5-.18.89-.55,1.18s-.86.43-1.48.43h-2.07v-5.53ZM229.29,525.71h.68c.34,0,.58-.05.71-.16.13-.11.2-.26.2-.48s-.08-.36-.23-.46c-.15-.09-.4-.14-.74-.14h-.62v1.23ZM229.29,526.64v1.44h.77c.35,0,.6-.07.74-.21.14-.14.21-.32.21-.55,0-.21-.07-.37-.21-.5s-.4-.19-.77-.19h-.73Z"/>
    <path class="cls-5" d="M233.33,529.05v-5.53h1.17v4.57h2.25v.97h-3.42Z"/>
    <path class="cls-5" d="M242.14,523.52v3.58c0,.38-.08.73-.25,1.03-.17.31-.42.55-.76.73-.34.18-.77.27-1.28.27-.73,0-1.29-.19-1.67-.56-.38-.38-.57-.87-.57-1.48v-3.57h1.17v3.39c0,.46.09.78.28.96.19.18.46.28.83.28s.66-.1.83-.3c.17-.2.26-.52.26-.95v-3.38h1.17Z"/>
    <path class="cls-5" d="M246.68,529.05h-3.19v-5.53h3.19v.96h-2.02v1.22h1.88v.96h-1.88v1.43h2.02v.97Z"/>
    <path class="cls-5" d="M141.77,533.21c.71,0,1.23.15,1.56.46.33.31.49.73.49,1.27,0,.33-.07.63-.2.91-.13.28-.36.5-.67.67s-.74.26-1.27.26h-.5v1.97h-1.17v-5.53h1.77ZM141.71,534.17h-.54v1.64h.39c.33,0,.59-.07.79-.2s.29-.34.29-.64c0-.54-.31-.81-.93-.81Z"/>
    <path class="cls-5" d="M146.51,534.43c.57,0,1,.12,1.31.37s.45.62.45,1.13v2.82h-.81l-.22-.57h-.03c-.18.23-.37.39-.57.5-.2.1-.48.16-.83.16-.38,0-.69-.11-.94-.33s-.37-.56-.37-1.02.16-.78.47-.99c.31-.21.79-.33,1.42-.36l.74-.02v-.19c0-.22-.06-.38-.17-.49-.12-.1-.28-.16-.48-.16s-.41.03-.6.09c-.2.06-.39.13-.59.22l-.38-.78c.22-.11.47-.21.75-.28.28-.07.57-.1.87-.1ZM147.12,536.78l-.45.02c-.37,0-.63.08-.77.2-.15.12-.22.29-.22.49,0,.18.05.3.16.38.1.08.24.11.4.11.25,0,.46-.07.63-.22s.26-.36.26-.62v-.35Z"/>
    <path class="cls-5" d="M151.86,534.43c.45,0,.82.12,1.09.37s.41.64.41,1.18v2.76h-1.15v-2.47c0-.3-.05-.53-.16-.69-.11-.15-.28-.23-.52-.23-.35,0-.59.12-.72.36-.13.24-.19.58-.19,1.03v1.99h-1.15v-4.23h.88l.15.54h.06c.13-.22.32-.38.55-.47.23-.1.48-.15.75-.15Z"/>
    <path class="cls-5" d="M156.33,537.9c.13,0,.25-.01.37-.04.12-.02.24-.06.36-.1v.86c-.12.06-.28.1-.46.14-.18.04-.38.05-.6.05-.25,0-.48-.04-.68-.12-.2-.08-.36-.22-.47-.43-.12-.2-.17-.49-.17-.85v-2.04h-.55v-.49l.64-.39.33-.89h.74v.9h1.19v.87h-1.19v2.04c0,.16.05.28.14.36.09.08.21.12.36.12Z"/>
    <path class="cls-5" d="M161.76,536.62c0,.7-.18,1.25-.55,1.63-.37.38-.87.57-1.51.57-.39,0-.74-.08-1.05-.26-.31-.17-.55-.42-.72-.75s-.26-.73-.26-1.2c0-.7.18-1.24.55-1.62.37-.38.87-.57,1.51-.57.4,0,.75.08,1.05.26.31.17.55.42.72.74.18.33.26.72.26,1.19ZM158.83,536.62c0,.42.07.74.21.95.14.21.36.32.67.32s.53-.11.66-.32c.14-.21.21-.53.21-.95s-.07-.73-.21-.94c-.14-.21-.36-.31-.67-.31s-.53.11-.66.31c-.14.21-.21.52-.21.94Z"/>
    <path class="cls-5" d="M165.11,534.43c.45,0,.82.12,1.09.37s.41.64.41,1.18v2.76h-1.15v-2.47c0-.3-.05-.53-.16-.69-.11-.15-.28-.23-.52-.23-.35,0-.59.12-.72.36-.13.24-.19.58-.19,1.03v1.99h-1.15v-4.23h.88l.15.54h.06c.13-.22.32-.38.55-.47.23-.1.48-.15.75-.15Z"/>
    <path class="cls-5" d="M169.55,534.43c.58,0,1.05.17,1.39.5.34.33.51.81.51,1.42v.56h-2.73c.01.33.11.58.29.77.18.19.44.28.76.28.27,0,.52-.03.74-.08.22-.05.46-.14.69-.25v.89c-.21.1-.43.18-.66.23-.23.05-.5.07-.83.07-.42,0-.8-.08-1.12-.24-.33-.16-.58-.4-.77-.71-.19-.32-.28-.72-.28-1.21s.08-.9.25-1.23.4-.58.7-.74c.3-.17.65-.25,1.05-.25ZM169.55,535.25c-.23,0-.41.07-.56.22-.15.14-.23.37-.26.67h1.62c0-.25-.07-.46-.21-.64-.13-.17-.33-.26-.6-.26Z"/>
    <path class="cls-5" d="M172.22,535.08c0-.24.06-.4.19-.5.13-.1.29-.14.47-.14s.34.05.46.14c.13.1.19.26.19.5s-.06.39-.19.49c-.13.1-.28.15-.46.15s-.34-.05-.47-.15c-.13-.1-.19-.26-.19-.49ZM172.22,538.2c0-.24.06-.4.19-.5.13-.1.29-.14.47-.14s.34.05.46.14c.13.1.19.26.19.5s-.06.39-.19.49c-.13.1-.28.15-.46.15s-.34-.05-.47-.15c-.13-.1-.19-.26-.19-.49Z"/>
    <path class="cls-5" d="M184.78,538.74h-3.5v-.37l1.59-1.65c.26-.27.49-.52.67-.74.18-.22.32-.43.41-.65.09-.22.14-.46.14-.73,0-.35-.1-.61-.3-.8s-.47-.28-.81-.28c-.25,0-.48.04-.7.13-.22.09-.43.21-.64.38l-.24-.31c.23-.19.48-.33.74-.43.27-.1.55-.15.84-.15.48,0,.86.13,1.14.39.28.26.43.62.43,1.06,0,.3-.05.57-.16.82s-.26.49-.45.73c-.19.24-.43.49-.69.76l-1.39,1.42v.02h2.94v.4Z"/>
    <path class="cls-5" d="M187.49,533.13c.48,0,.86.11,1.15.34s.44.54.44.96c0,.34-.11.61-.33.83-.22.21-.5.4-.84.55.4.17.73.36.98.6s.37.54.37.93c0,.32-.08.58-.23.81-.15.22-.36.39-.63.51-.27.12-.57.18-.91.18-.54,0-.97-.13-1.29-.4-.32-.26-.48-.62-.48-1.06,0-.27.06-.5.17-.69.11-.19.27-.36.46-.5.2-.14.42-.25.67-.35-.21-.1-.39-.21-.56-.33-.17-.12-.3-.27-.4-.44-.1-.17-.15-.38-.15-.62,0-.27.07-.5.21-.7.14-.2.32-.35.56-.45.24-.1.51-.15.81-.15ZM186.16,537.36c0,.33.11.59.34.79.23.2.55.3.96.3s.74-.1.98-.3c.24-.2.36-.47.36-.83,0-.3-.11-.55-.32-.75-.21-.2-.52-.37-.9-.51l-.17-.06c-.38.14-.69.31-.92.52s-.34.48-.34.83ZM187.49,533.5c-.33,0-.6.08-.82.25-.22.17-.33.4-.33.7s.11.54.33.72.5.32.85.45c.35-.14.62-.3.82-.48s.3-.41.3-.71-.1-.53-.31-.69-.49-.24-.84-.24Z"/>
    <path class="cls-5" d="M191.91,533.13c.48,0,.86.11,1.15.34s.44.54.44.96c0,.34-.11.61-.33.83-.22.21-.5.4-.84.55.4.17.73.36.98.6s.37.54.37.93c0,.32-.08.58-.23.81-.15.22-.36.39-.63.51-.27.12-.57.18-.91.18-.54,0-.97-.13-1.29-.4-.32-.26-.48-.62-.48-1.06,0-.27.06-.5.17-.69.11-.19.27-.36.46-.5.2-.14.42-.25.67-.35-.21-.1-.39-.21-.56-.33-.17-.12-.3-.27-.4-.44-.1-.17-.15-.38-.15-.62,0-.27.07-.5.21-.7.14-.2.32-.35.56-.45.24-.1.51-.15.81-.15ZM190.59,537.36c0,.33.11.59.34.79.23.2.55.3.96.3s.74-.1.98-.3c.24-.2.36-.47.36-.83,0-.3-.11-.55-.32-.75-.21-.2-.52-.37-.9-.51l-.17-.06c-.38.14-.69.31-.92.52s-.34.48-.34.83ZM191.91,533.5c-.33,0-.6.08-.82.25-.22.17-.33.4-.33.7s.11.54.33.72.5.32.85.45c.35-.14.62-.3.82-.48s.3-.41.3-.71-.1-.53-.31-.69-.49-.24-.84-.24Z"/>
    <path class="cls-5" d="M142.35,543.8c-.45,0-.79.17-1.03.5s-.36.8-.36,1.38.11,1.04.33,1.37c.22.32.57.48,1.06.48.22,0,.45-.03.67-.08s.47-.12.74-.22v.98c-.24.1-.48.17-.72.22-.24.05-.5.07-.8.07-.57,0-1.04-.12-1.41-.35-.37-.24-.64-.57-.81-.99-.18-.43-.26-.92-.26-1.49s.1-1.05.3-1.48c.2-.43.49-.76.88-1.01.38-.24.86-.36,1.41-.36.27,0,.55.04.83.1.28.07.54.16.79.28l-.38.95c-.21-.1-.41-.18-.62-.26s-.41-.11-.62-.11Z"/>
    <path class="cls-5" d="M147.28,548.43l-1.33-4.34h-.03c0,.1.01.26.02.46s.02.43.03.67c.01.24.02.45.02.63v2.57h-1.05v-5.53h1.6l1.31,4.23h.02l1.39-4.23h1.6v5.53h-1.09v-2.62c0-.18,0-.38.01-.6,0-.23.02-.44.02-.65s.01-.36.02-.46h-.03l-1.43,4.33h-1.08Z"/>
    <path class="cls-5" d="M153.97,545.18l1.15-2.28h1.26l-1.84,3.38v2.15h-1.16v-2.12l-1.84-3.42h1.27l1.15,2.28Z"/>
    <path class="cls-5" d="M161.53,548.43h-1.33l-1.45-2.33-.5.36v1.98h-1.17v-5.53h1.17v2.53c.08-.11.16-.22.23-.33.08-.11.15-.22.23-.33l1.5-1.88h1.3l-1.93,2.45,1.95,3.08Z"/>
    <path class="cls-5" d="M161.97,544.76c0-.24.06-.4.19-.5.13-.09.29-.14.47-.14s.34.05.46.14c.13.1.19.26.19.5s-.06.39-.19.49c-.13.1-.28.15-.46.15s-.34-.05-.47-.15c-.13-.1-.19-.26-.19-.49ZM161.97,547.89c0-.24.06-.4.19-.5.13-.1.29-.14.47-.14s.34.05.46.14c.13.1.19.26.19.5s-.06.39-.19.49c-.13.1-.28.15-.46.15s-.34-.05-.47-.15c-.13-.1-.19-.26-.19-.49Z"/>
    <path class="cls-5" d="M183.99,543.22c-.46,0-.84.1-1.17.31s-.57.49-.75.85-.26.79-.26,1.28.08.93.24,1.29c.16.37.39.65.7.85.31.2.7.3,1.16.3.27,0,.52-.02.74-.06.22-.04.44-.09.64-.15v.39c-.19.07-.4.13-.63.17-.23.04-.5.06-.79.06-.56,0-1.02-.12-1.4-.36-.38-.24-.66-.57-.85-1-.19-.43-.28-.93-.28-1.5s.1-1.03.31-1.46.51-.76.91-1c.4-.24.87-.36,1.43-.36s1.03.1,1.46.31l-.18.39c-.4-.2-.83-.29-1.28-.29Z"/>
    <path class="cls-5" d="M188.31,548.43h-.43v-4.66c0-.14,0-.28.02-.41-.07.07-.14.13-.2.19s-.14.12-.25.2l-.77.59-.23-.31,1.5-1.13h.37v5.53Z"/>
    <path class="cls-5" d="M194.11,545.65c0,.92-.14,1.63-.43,2.12-.29.49-.74.74-1.35.74s-1.03-.24-1.33-.73c-.3-.49-.45-1.2-.45-2.13,0-.56.06-1.06.17-1.48.12-.43.3-.76.57-1,.26-.24.61-.36,1.04-.36s.77.12,1.03.35c.26.23.45.56.57.99.12.43.18.93.18,1.5ZM190.99,545.65c0,.83.11,1.45.32,1.86s.55.61,1.01.61.81-.2,1.02-.61c.21-.41.31-1.03.31-1.86,0-.51-.04-.95-.12-1.32s-.22-.65-.41-.84c-.19-.19-.46-.29-.79-.29s-.6.1-.8.29c-.2.2-.34.48-.42.84-.08.37-.12.8-.12,1.31Z"/>
    <path class="cls-5" d="M198.53,545.65c0,.92-.14,1.63-.43,2.12-.29.49-.74.74-1.35.74s-1.03-.24-1.33-.73c-.3-.49-.45-1.2-.45-2.13,0-.56.06-1.06.17-1.48.12-.43.3-.76.57-1,.26-.24.61-.36,1.04-.36s.77.12,1.03.35c.26.23.45.56.57.99.12.43.18.93.18,1.5ZM195.42,545.65c0,.83.11,1.45.32,1.86s.55.61,1.01.61.81-.2,1.02-.61c.21-.41.31-1.03.31-1.86,0-.51-.04-.95-.12-1.32s-.22-.65-.41-.84c-.19-.19-.46-.29-.79-.29s-.6.1-.8.29c-.2.2-.34.48-.42.84-.08.37-.12.8-.12,1.31Z"/>
    <path class="cls-5" d="M204.16,548.43l-1.98-5.05h-.03c.01.14.02.3.02.48,0,.18,0,.38,0,.58v3.98h-.42v-5.53h.68l1.91,4.85h.02l1.93-4.85h.67v5.53h-.45v-4.03c0-.18,0-.35,0-.53,0-.18.01-.34.02-.49h-.02l-2,5.05h-.36Z"/>
    <path class="cls-5" d="M209.94,542.82c.48,0,.86.11,1.15.34.29.23.44.54.44.96,0,.34-.11.61-.33.83-.22.21-.5.4-.84.55.4.17.73.36.98.6.25.23.37.54.37.93,0,.32-.08.58-.23.81-.15.22-.36.39-.63.51s-.57.18-.91.18c-.54,0-.97-.13-1.29-.4s-.48-.62-.48-1.06c0-.27.06-.5.17-.69.11-.19.27-.36.46-.5.2-.14.42-.25.67-.35-.21-.1-.39-.21-.56-.33s-.3-.27-.4-.44c-.1-.17-.15-.38-.15-.62,0-.27.07-.5.21-.7.14-.2.32-.35.56-.45s.51-.16.81-.16ZM208.62,547.05c0,.33.11.59.34.79s.55.3.96.3.74-.1.98-.3.36-.47.36-.83c0-.3-.11-.55-.32-.75s-.52-.37-.9-.51l-.17-.06c-.38.14-.69.31-.92.51s-.34.48-.34.83ZM209.94,543.19c-.33,0-.6.08-.82.25-.22.17-.33.4-.33.7s.11.54.33.72c.22.17.5.32.85.45.35-.14.62-.3.82-.48s.3-.41.3-.71-.1-.53-.31-.69-.49-.24-.84-.24Z"/>
    <path class="cls-5" d="M216.16,545.65c0,.92-.14,1.63-.43,2.12-.29.49-.74.74-1.35.74s-1.03-.24-1.33-.73c-.3-.49-.45-1.2-.45-2.13,0-.56.06-1.06.17-1.48.12-.43.3-.76.57-1,.26-.24.61-.36,1.04-.36s.77.12,1.03.35c.26.23.45.56.57.99.12.43.18.93.18,1.5ZM213.04,545.65c0,.83.11,1.45.32,1.86s.55.61,1.01.61.81-.2,1.02-.61c.21-.41.31-1.03.31-1.86,0-.51-.04-.95-.12-1.32s-.22-.65-.41-.84c-.19-.19-.46-.29-.79-.29s-.6.1-.8.29c-.2.2-.34.48-.42.84-.08.37-.12.8-.12,1.31Z"/>
    <path class="cls-5" d="M220.68,545.86l1.58-2.96h.5l-1.84,3.39v2.14h-.45v-2.11l-1.86-3.43h.5l1.58,2.96Z"/>
    <path class="cls-5" d="M223.24,546.07c0-.66.08-1.24.25-1.72s.43-.87.78-1.14.81-.4,1.38-.4c.28,0,.53.03.73.09v.39c-.09-.04-.2-.06-.33-.08s-.25-.02-.39-.02c-.67,0-1.16.22-1.48.67-.32.45-.5,1.09-.52,1.91h.03c.11-.2.28-.38.52-.54s.55-.24.95-.24c.5,0,.89.15,1.18.45s.43.7.43,1.22c0,.56-.15,1-.45,1.34-.3.34-.72.5-1.26.5-.39,0-.72-.11-1-.31-.27-.21-.48-.5-.62-.86-.14-.36-.21-.78-.21-1.26ZM225.07,548.13c.39,0,.7-.12.93-.38.23-.25.34-.61.34-1.09,0-.4-.1-.72-.31-.95-.21-.23-.52-.35-.93-.35-.28,0-.53.06-.74.17-.21.11-.37.26-.48.43-.11.17-.17.35-.17.52,0,.16.02.33.07.52.05.19.12.37.23.54.11.17.25.31.42.42.17.11.39.17.65.17Z"/>
    <path class="cls-5" d="M233.76,548.43h-.54l-2.1-2.87-.69.66v2.21h-.45v-5.53h.45v2.88c.1-.12.21-.24.33-.36.11-.12.23-.24.34-.37l2.05-2.15h.56l-2.25,2.36,2.31,3.18Z"/>
    <path class="cls-5" d="M237.49,544.18c0,.37-.11.67-.33.9-.22.23-.5.38-.84.44v.03c.43.05.76.19.99.42.23.23.34.54.34.93,0,.48-.17.86-.5,1.16-.34.3-.84.45-1.51.45-.3,0-.58-.03-.83-.08-.26-.05-.49-.13-.7-.23v-.43c.21.1.45.19.73.26.27.07.54.1.81.1.53,0,.92-.11,1.17-.34.25-.22.38-.53.38-.91,0-.4-.15-.69-.45-.86s-.7-.26-1.2-.26h-.59v-.39h.6c.43,0,.78-.1,1.06-.3.28-.2.42-.49.42-.87,0-.33-.11-.57-.32-.74-.21-.17-.49-.25-.85-.25-.29,0-.56.04-.79.13-.23.09-.47.21-.69.36l-.23-.31c.21-.17.46-.3.74-.41s.6-.16.96-.16c.52,0,.92.12,1.2.37.28.25.43.58.43.99Z"/>
    <path class="cls-5" d="M242.17,545.65c0,.92-.14,1.63-.43,2.12-.29.49-.74.74-1.35.74s-1.03-.24-1.33-.73c-.3-.49-.45-1.2-.45-2.13,0-.56.06-1.06.17-1.48.12-.43.3-.76.57-1,.26-.24.61-.36,1.04-.36s.77.12,1.03.35c.26.23.45.56.57.99.12.43.18.93.18,1.5ZM239.06,545.65c0,.83.11,1.45.32,1.86s.55.61,1.01.61.81-.2,1.02-.61c.21-.41.31-1.03.31-1.86,0-.51-.04-.95-.12-1.32s-.22-.65-.41-.84c-.19-.19-.46-.29-.79-.29s-.6.1-.8.29c-.2.2-.34.48-.42.84-.08.37-.12.8-.12,1.31Z"/>
    <path class="cls-5" d="M141.61,552.58c.75,0,1.31.14,1.67.41.36.27.54.69.54,1.25,0,.25-.05.47-.14.66s-.22.35-.38.48c-.16.13-.33.24-.51.32l1.63,2.41h-1.3l-1.32-2.12h-.63v2.12h-1.17v-5.53h1.61ZM141.53,553.55h-.36v1.5h.38c.39,0,.67-.06.83-.19.17-.13.25-.32.25-.57s-.09-.45-.27-.56c-.18-.11-.46-.17-.84-.17Z"/>
    <path class="cls-5" d="M147.22,555.01h2.19v2.87c-.29.1-.59.18-.91.23s-.67.08-1.06.08c-.83,0-1.46-.24-1.91-.73-.44-.49-.67-1.19-.67-2.12,0-.58.11-1.08.33-1.5s.55-.75.98-.98.96-.35,1.58-.35c.29,0,.58.03.87.09.28.06.54.14.77.25l-.39.94c-.17-.09-.36-.16-.58-.22-.22-.06-.44-.08-.68-.08-.34,0-.64.08-.89.23s-.44.37-.58.66c-.14.28-.21.62-.21.99s.05.68.15.96c.1.28.25.5.47.66.21.16.49.24.83.24.17,0,.3,0,.42-.02s.22-.03.33-.05v-1.16h-1.05v-.98Z"/>
    <path class="cls-5" d="M150.73,552.58h1.72c.73,0,1.29.1,1.67.31.38.21.57.57.57,1.09,0,.31-.07.58-.22.8-.15.22-.36.35-.63.4v.04c.18.04.35.11.5.2s.27.22.36.4c.09.18.13.41.13.7,0,.5-.18.89-.55,1.18s-.86.43-1.48.43h-2.07v-5.53ZM151.9,554.78h.68c.34,0,.58-.05.71-.16.13-.11.2-.26.2-.48s-.08-.36-.23-.46c-.15-.09-.4-.14-.74-.14h-.62v1.23ZM151.9,555.71v1.44h.77c.35,0,.6-.07.74-.21.14-.14.21-.32.21-.55,0-.21-.07-.37-.21-.5s-.4-.19-.77-.19h-.73Z"/>
    <path class="cls-5" d="M155.68,554.45c0-.24.06-.4.19-.5.13-.1.29-.14.47-.14s.34.05.46.14c.13.1.19.26.19.5s-.06.39-.19.49c-.13.1-.28.15-.46.15s-.34-.05-.47-.15c-.13-.1-.19-.26-.19-.49ZM155.68,557.58c0-.24.06-.4.19-.5.13-.1.29-.14.47-.14s.34.05.46.14c.13.1.19.26.19.5s-.06.39-.19.49c-.13.1-.28.15-.46.15s-.34-.05-.47-.15c-.13-.1-.19-.26-.19-.49Z"/>
    <path class="cls-5" d="M183.02,552.58c.66,0,1.16.12,1.49.35.33.23.5.62.5,1.17,0,.42-.11.75-.34.99-.23.24-.51.41-.84.51l1.52,2.51h-.53l-1.41-2.39h-1.32v2.39h-.45v-5.53h1.38ZM182.98,552.99h-.89v2.36h1.05c.45,0,.8-.11,1.04-.32.25-.21.37-.51.37-.91,0-.42-.13-.72-.38-.88-.26-.17-.65-.25-1.18-.25Z"/>
    <path class="cls-5" d="M189.5,555.34c0,.92-.14,1.63-.43,2.12-.29.49-.74.74-1.35.74s-1.03-.24-1.33-.73c-.3-.49-.45-1.2-.45-2.13,0-.56.06-1.06.17-1.48.12-.43.3-.76.57-1,.26-.24.61-.36,1.04-.36s.77.12,1.03.35c.26.23.45.56.57.99.12.43.18.93.18,1.5ZM186.39,555.34c0,.83.11,1.45.32,1.86s.55.61,1.01.61.81-.2,1.02-.61c.21-.41.31-1.03.31-1.86,0-.51-.04-.95-.12-1.32-.08-.37-.22-.65-.41-.84-.19-.19-.46-.29-.79-.29s-.6.1-.8.29c-.2.2-.34.48-.42.84-.08.37-.12.8-.12,1.31Z"/>
    <path class="cls-5" d="M194.95,555.3h2.01v2.57c-.27.11-.55.19-.85.24-.3.05-.63.08-.98.08-.88,0-1.55-.25-2.01-.75-.46-.5-.69-1.2-.69-2.08,0-.56.11-1.05.34-1.48.22-.43.55-.77.97-1.01.42-.24.93-.36,1.53-.36.3,0,.59.03.86.08.27.06.53.14.77.25l-.19.4c-.47-.22-.96-.33-1.47-.33s-.9.1-1.25.31c-.35.21-.62.5-.81.86-.19.37-.28.8-.28,1.28,0,.8.2,1.4.59,1.82.4.42.97.62,1.73.62.27,0,.51-.02.72-.06.21-.04.4-.09.57-.14v-1.89h-1.56v-.41Z"/>
    <path class="cls-5" d="M201.87,556.74h-.92v1.38h-.43v-1.38h-2.78v-.36l2.75-3.83h.46v3.78h.92v.4ZM200.52,556.34v-2.05c0-.3,0-.54,0-.71,0-.17,0-.35.01-.53h-.02c-.07.12-.14.23-.2.33s-.13.21-.22.33l-1.9,2.63h2.32Z"/>
    <path class="cls-5" d="M204.11,554.77c.56,0,1.01.14,1.34.43s.49.68.49,1.2c0,.56-.18,1-.54,1.32s-.85.48-1.47.48c-.29,0-.55-.03-.79-.08s-.45-.13-.62-.22v-.44c.18.11.4.2.65.26.25.07.51.1.77.1.47,0,.85-.12,1.13-.35.28-.24.43-.58.43-1.03,0-.4-.12-.72-.37-.94-.25-.22-.62-.33-1.12-.33-.2,0-.39.01-.57.04-.19.03-.36.06-.51.1l-.24-.16.22-2.55h2.68v.4h-2.31l-.16,1.91c.11-.02.25-.05.41-.08.17-.03.36-.05.58-.05Z"/>
    <path class="cls-5" d="M209.2,552.58h1.53c.68,0,1.19.11,1.51.32.33.21.49.56.49,1.03,0,.32-.09.59-.28.82-.19.23-.45.37-.8.43v.03c.4.06.71.2.92.42.21.21.31.52.31.91,0,.36-.08.65-.24.88s-.39.41-.68.52c-.29.11-.63.17-1.01.17h-1.75v-5.53ZM209.65,555.03h1.19c.51,0,.87-.09,1.1-.26.22-.18.34-.44.34-.78s-.12-.61-.36-.77c-.24-.16-.63-.23-1.17-.23h-1.08v2.05ZM209.65,555.41v2.32h1.26c1,0,1.5-.4,1.5-1.21,0-.38-.13-.66-.38-.84-.26-.18-.65-.27-1.19-.27h-1.19Z"/>
    <path class="cls-5" d="M215.95,558.12h-.43v-4.66c0-.14,0-.28.02-.41-.07.07-.14.13-.2.19s-.14.12-.25.2l-.77.59-.23-.31,1.5-1.13h.37v5.53Z"/>
    <path class="cls-5" d="M220.37,558.12h-.43v-4.66c0-.14,0-.28.02-.41-.07.07-.14.13-.2.19s-.14.12-.25.2l-.77.59-.23-.31,1.5-1.13h.37v5.53Z"/>
    <path class="cls-5" d="M226.49,556.74h-.92v1.38h-.43v-1.38h-2.78v-.36l2.75-3.83h.46v3.78h.92v.4ZM225.14,556.34v-2.05c0-.3,0-.54,0-.71,0-.17,0-.35.01-.53h-.02c-.07.12-.14.23-.2.33s-.13.21-.22.33l-1.9,2.63h2.32Z"/>
    <path class="cls-5" d="M144.54,567.81h-1.17v-2.39h-2.19v2.39h-1.17v-5.53h1.17v2.17h2.19v-2.17h1.17v5.53Z"/>
    <path class="cls-5" d="M149.12,567.81h-3.19v-5.53h3.19v.96h-2.02v1.22h1.88v.96h-1.88v1.43h2.02v.97Z"/>
    <path class="cls-5" d="M154.74,567.81h-1.34l-1.29-2.09-1.29,2.09h-1.26l1.84-2.85-1.72-2.68h1.29l1.19,1.99,1.17-1.99h1.26l-1.74,2.74,1.87,2.79Z"/>
    <path class="cls-5" d="M155.18,564.14c0-.24.06-.4.19-.5.13-.1.29-.14.47-.14s.34.05.46.14c.13.1.19.26.19.5s-.06.39-.19.49c-.13.1-.28.15-.46.15s-.34-.05-.47-.15c-.13-.1-.19-.26-.19-.49ZM155.18,567.26c0-.24.06-.4.19-.5.13-.1.29-.14.47-.14s.34.05.46.14c.13.1.19.26.19.5s-.06.39-.19.49c-.13.1-.28.15-.46.15s-.34-.05-.47-.15c-.13-.1-.19-.26-.19-.49Z"/>
    <path class="cls-5" d="M184.54,564.33l-.28,1.43h1.12v.36h-1.19l-.33,1.69h-.37l.33-1.69h-1.33l-.33,1.69h-.36l.32-1.69h-1.05v-.36h1.12l.29-1.43h-1.11v-.35h1.17l.33-1.71h.38l-.33,1.71h1.33l.33-1.71h.36l-.33,1.71h1.06v.35h-1.12ZM182.55,565.76h1.33l.28-1.43h-1.33l-.28,1.43Z"/>
    <path class="cls-5" d="M189.86,565.02c0,.92-.14,1.63-.43,2.12-.29.49-.74.74-1.35.74s-1.03-.24-1.33-.73c-.3-.49-.45-1.2-.45-2.13,0-.56.06-1.06.17-1.48.12-.43.3-.76.57-1,.26-.24.61-.36,1.04-.36s.77.12,1.03.35c.26.23.45.56.57.99.12.43.18.93.18,1.5ZM186.74,565.02c0,.83.11,1.45.32,1.86s.55.61,1.01.61.81-.2,1.02-.61c.21-.41.31-1.03.31-1.86,0-.51-.04-.95-.12-1.32-.08-.37-.22-.65-.41-.84-.19-.19-.46-.29-.79-.29s-.6.1-.8.29c-.2.2-.34.48-.42.84-.08.37-.12.8-.12,1.31Z"/>
    <path class="cls-5" d="M194.29,565.02c0,.92-.14,1.63-.43,2.12-.29.49-.74.74-1.35.74s-1.03-.24-1.33-.73c-.3-.49-.45-1.2-.45-2.13,0-.56.06-1.06.17-1.48.12-.43.3-.76.57-1,.26-.24.61-.36,1.04-.36s.77.12,1.03.35c.26.23.45.56.57.99.12.43.18.93.18,1.5ZM191.17,565.02c0,.83.11,1.45.32,1.86s.55.61,1.01.61.81-.2,1.02-.61c.21-.41.31-1.03.31-1.86,0-.51-.04-.95-.12-1.32-.08-.37-.22-.65-.41-.84-.19-.19-.46-.29-.79-.29s-.6.1-.8.29c-.2.2-.34.48-.42.84-.08.37-.12.8-.12,1.31Z"/>
    <path class="cls-5" d="M198.64,567.81h-3.5v-.37l1.59-1.65c.26-.27.49-.52.67-.74.18-.22.32-.43.41-.65.09-.22.14-.46.14-.73,0-.35-.1-.61-.3-.8s-.47-.28-.81-.28c-.25,0-.48.04-.7.13-.22.09-.43.21-.64.38l-.24-.31c.23-.19.48-.33.74-.43.27-.1.55-.15.84-.15.48,0,.86.13,1.14.39.28.26.43.62.43,1.06,0,.3-.05.57-.16.82s-.26.49-.45.73c-.19.24-.43.49-.69.76l-1.39,1.42v.02h2.94v.4Z"/>
    <path class="cls-5" d="M204.17,564.99c0,.93-.25,1.63-.74,2.11-.49.47-1.21.71-2.15.71h-1.36v-5.53h1.53c.88,0,1.55.23,2.02.69.47.46.7,1.14.7,2.02ZM203.7,565c0-1.56-.78-2.33-2.33-2.33h-1v4.74h.88c1.63,0,2.45-.8,2.45-2.41Z"/>
    <path class="cls-5" d="M205.9,567.81l2.28-5.13h-3.12v-.4h3.6v.33l-2.28,5.21h-.48Z"/>
    <path class="cls-5" d="M213,567.81h-3.5v-.37l1.59-1.65c.26-.27.49-.52.67-.74.18-.22.32-.43.41-.65.09-.22.14-.46.14-.73,0-.35-.1-.61-.3-.8s-.47-.28-.81-.28c-.25,0-.48.04-.7.13-.22.09-.43.21-.64.38l-.24-.31c.23-.19.48-.33.74-.43.27-.1.55-.15.84-.15.48,0,.86.13,1.14.39.28.26.43.62.43,1.06,0,.3-.05.57-.16.82s-.26.49-.45.73c-.19.24-.43.49-.69.76l-1.39,1.42v.02h2.94v.4Z"/>
  </g>
  <g>
    <path class="cls-6" d="M336.7,529.05h-2.52v-.67l.67-.31v-3.58l-.67-.31v-.67h2.52v.67l-.67.31v3.58l.67.31v.67Z"/>
    <path class="cls-6" d="M342.56,529.05h-1.49l-2.41-4.19h-.03c.01.26.02.53.03.79.01.26.02.53.03.79v2.6h-1.05v-5.53h1.48l2.4,4.15h.02c-.01-.25-.02-.51-.03-.76-.01-.25-.02-.51-.02-.77v-2.62h1.05v5.53Z"/>
    <path class="cls-6" d="M348.54,526.23c0,.94-.27,1.64-.8,2.11-.53.47-1.27.71-2.22.71h-1.57v-5.53h1.74c.58,0,1.08.1,1.51.31.43.21.76.51.99.91.24.4.35.9.35,1.49ZM347.32,526.26c0-.61-.13-1.06-.4-1.35-.27-.29-.66-.43-1.17-.43h-.63v3.6h.5c1.13,0,1.7-.61,1.7-1.82Z"/>
    <path class="cls-6" d="M354.71,526.28c0,.57-.09,1.07-.28,1.5-.19.43-.48.76-.87,1s-.88.36-1.48.36-1.09-.12-1.48-.36-.68-.57-.87-1-.28-.93-.28-1.5.09-1.07.28-1.5.48-.75.87-.99.89-.35,1.49-.35,1.09.12,1.48.35.68.57.86.99c.19.43.28.93.28,1.5ZM350.67,526.28c0,.58.11,1.04.33,1.37.22.33.58.5,1.07.5s.86-.17,1.08-.5c.22-.33.33-.79.33-1.37s-.11-1.03-.33-1.37c-.22-.33-.57-.5-1.07-.5s-.85.17-1.08.5c-.22.33-.33.79-.33,1.37Z"/>
    <path class="cls-6" d="M357.47,523.52c.75,0,1.31.14,1.67.41.36.27.54.69.54,1.25,0,.25-.05.47-.14.66s-.22.35-.38.48c-.16.13-.33.24-.51.32l1.63,2.41h-1.3l-1.32-2.12h-.63v2.12h-1.17v-5.53h1.61ZM357.38,524.48h-.36v1.5h.38c.39,0,.67-.06.83-.19.17-.13.25-.32.25-.57s-.09-.45-.27-.56c-.18-.11-.46-.17-.84-.17Z"/>
    <path class="cls-6" d="M364.36,529.05l-.4-1.32h-2.02l-.4,1.32h-1.26l1.95-5.56h1.43l1.96,5.56h-1.26ZM363.68,526.75l-.4-1.29c-.03-.09-.06-.2-.1-.33-.04-.13-.08-.27-.12-.41-.04-.14-.08-.26-.1-.36-.03.1-.06.23-.1.38s-.09.3-.12.43c-.04.14-.07.23-.09.29l-.4,1.29h1.44Z"/>
    <path class="cls-6" d="M368.66,529.05l-1.33-4.34h-.03c0,.1.01.26.02.46.01.21.02.43.03.67.01.24.02.45.02.64v2.57h-1.05v-5.53h1.6l1.31,4.23h.02l1.39-4.23h1.6v5.53h-1.09v-2.62c0-.18,0-.38.01-.6,0-.23.02-.44.02-.65,0-.2.01-.36.02-.46h-.03l-1.43,4.33h-1.08Z"/>
    <path class="cls-6" d="M377.01,529.05l-.4-1.32h-2.02l-.4,1.32h-1.26l1.95-5.56h1.43l1.96,5.56h-1.26ZM376.33,526.75l-.4-1.29c-.03-.09-.06-.2-.1-.33-.04-.13-.08-.27-.12-.41-.04-.14-.08-.26-.1-.36-.03.1-.06.23-.1.38s-.09.3-.12.43c-.04.14-.07.23-.09.29l-.4,1.29h1.44Z"/>
    <path class="cls-6" d="M385.33,523.52l-1.88,5.53h-1.28l-1.88-5.53h1.19l1.04,3.29c.02.06.04.16.08.31s.08.31.12.48.07.31.09.42c.02-.11.04-.25.08-.42.04-.17.08-.33.12-.48.04-.15.07-.26.09-.31l1.05-3.29h1.19Z"/>
    <path class="cls-6" d="M389.21,529.05h-3.19v-5.53h3.19v.96h-2.02v1.22h1.88v.96h-1.88v1.43h2.02v.97Z"/>
    <path class="cls-6" d="M395.27,529.05h-1.49l-2.41-4.19h-.03c.01.26.02.53.03.79.01.26.02.53.03.79v2.6h-1.05v-5.53h1.48l2.4,4.15h.02c-.01-.25-.02-.51-.03-.76-.01-.25-.02-.51-.02-.77v-2.62h1.05v5.53Z"/>
    <path class="cls-6" d="M398.8,529.05h-1.17v-4.56h-1.5v-.98h4.18v.98h-1.5v4.56Z"/>
    <path class="cls-6" d="M405.66,523.52v3.58c0,.38-.08.73-.25,1.03-.17.31-.42.55-.76.73-.34.18-.77.27-1.28.27-.73,0-1.29-.19-1.67-.56-.38-.38-.57-.87-.57-1.48v-3.57h1.17v3.39c0,.46.09.78.28.96.19.18.46.28.83.28s.66-.1.83-.3c.17-.2.26-.52.26-.95v-3.38h1.17Z"/>
    <path class="cls-6" d="M408.63,523.52c.75,0,1.31.14,1.67.41.36.27.54.69.54,1.25,0,.25-.05.47-.14.66s-.22.35-.38.48c-.16.13-.33.24-.51.32l1.63,2.41h-1.3l-1.32-2.12h-.63v2.12h-1.17v-5.53h1.61ZM408.54,524.48h-.36v1.5h.38c.39,0,.67-.06.83-.19.17-.13.25-.32.25-.57s-.09-.45-.27-.56c-.18-.11-.46-.17-.84-.17Z"/>
    <path class="cls-6" d="M415.32,529.05h-3.19v-5.53h3.19v.96h-2.02v1.22h1.88v.96h-1.88v1.43h2.02v.97Z"/>
    <path class="cls-6" d="M419.73,527.52c0,.49-.18.88-.53,1.17s-.86.44-1.51.44c-.58,0-1.11-.11-1.57-.33v-1.09c.26.11.54.22.82.31.28.1.56.14.84.14s.49-.06.62-.17c.12-.11.18-.25.18-.42,0-.14-.05-.26-.14-.36-.1-.1-.22-.19-.38-.28-.16-.08-.34-.18-.55-.28-.13-.06-.27-.14-.42-.22s-.29-.19-.43-.32c-.14-.13-.25-.28-.34-.46-.09-.18-.13-.4-.13-.65,0-.5.17-.88.5-1.16s.79-.41,1.37-.41c.29,0,.56.03.82.1s.53.16.82.29l-.38.91c-.25-.1-.48-.18-.68-.24s-.41-.08-.62-.08-.39.05-.51.15c-.12.1-.18.24-.18.4,0,.2.09.35.26.46.18.11.44.25.78.42.28.13.53.27.72.42.2.15.35.32.46.51s.16.44.16.73Z"/>
    <path class="cls-6" d="M424.86,525.95h2.19v2.87c-.29.1-.59.18-.91.23s-.67.08-1.06.08c-.83,0-1.46-.24-1.91-.73-.44-.49-.67-1.19-.67-2.12,0-.58.11-1.08.33-1.5s.55-.75.98-.98.96-.35,1.58-.35c.29,0,.58.03.87.09.28.06.54.14.77.25l-.39.94c-.17-.09-.36-.16-.58-.22-.22-.06-.44-.08-.68-.08-.34,0-.64.08-.89.23s-.44.37-.58.66c-.14.28-.21.62-.21.99s.05.68.15.96c.1.28.25.5.47.66.21.16.49.24.83.24.17,0,.3,0,.42-.02s.22-.03.33-.05v-1.16h-1.05v-.98Z"/>
    <path class="cls-6" d="M429.98,523.52c.75,0,1.31.14,1.67.41.36.27.54.69.54,1.25,0,.25-.05.47-.14.66s-.22.35-.38.48c-.16.13-.33.24-.51.32l1.63,2.41h-1.3l-1.32-2.12h-.63v2.12h-1.17v-5.53h1.61ZM429.9,524.48h-.36v1.5h.38c.39,0,.67-.06.83-.19.17-.13.25-.32.25-.57s-.09-.45-.27-.56c-.18-.11-.46-.17-.84-.17Z"/>
    <path class="cls-6" d="M436.67,529.05h-3.19v-5.53h3.19v.96h-2.02v1.22h1.88v.96h-1.88v1.43h2.02v.97Z"/>
    <path class="cls-6" d="M441.01,529.05h-3.19v-5.53h3.19v.96h-2.02v1.22h1.88v.96h-1.88v1.43h2.02v.97Z"/>
    <path class="cls-6" d="M447.07,529.05h-1.49l-2.41-4.19h-.03c.01.26.02.53.03.79.01.26.02.53.03.79v2.6h-1.05v-5.53h1.48l2.4,4.15h.02c-.01-.25-.02-.51-.03-.76-.01-.25-.02-.51-.02-.77v-2.62h1.05v5.53Z"/>
    <path class="cls-6" d="M336.4,533.21c.71,0,1.23.15,1.56.46.33.31.49.73.49,1.27,0,.33-.07.63-.2.91-.13.28-.36.5-.67.67s-.74.26-1.27.26h-.5v1.97h-1.17v-5.53h1.77ZM336.34,534.17h-.54v1.64h.39c.33,0,.59-.07.79-.2s.29-.34.29-.64c0-.54-.31-.81-.93-.81Z"/>
    <path class="cls-6" d="M341.15,534.43c.57,0,1,.12,1.31.37s.45.62.45,1.13v2.82h-.81l-.22-.57h-.03c-.18.23-.37.39-.57.5-.2.1-.48.16-.83.16-.38,0-.69-.11-.94-.33s-.37-.56-.37-1.02.16-.78.47-.99c.31-.21.79-.33,1.42-.36l.74-.02v-.19c0-.22-.06-.38-.17-.49-.12-.1-.28-.16-.48-.16s-.41.03-.6.09c-.2.06-.39.13-.59.22l-.38-.78c.22-.11.47-.21.75-.28.28-.07.57-.1.87-.1ZM341.76,536.78l-.45.02c-.37,0-.63.08-.77.2-.15.12-.22.29-.22.49,0,.18.05.3.16.38.1.08.24.11.4.11.25,0,.46-.07.63-.22s.26-.36.26-.62v-.35Z"/>
    <path class="cls-6" d="M346.49,534.43c.45,0,.82.12,1.09.37s.41.64.41,1.18v2.76h-1.15v-2.47c0-.3-.05-.53-.16-.69-.11-.15-.28-.23-.52-.23-.35,0-.59.12-.72.36-.13.24-.19.58-.19,1.03v1.99h-1.15v-4.23h.88l.15.54h.06c.13-.22.32-.38.55-.47.23-.1.48-.15.75-.15Z"/>
    <path class="cls-6" d="M350.97,537.9c.13,0,.25-.01.37-.04.12-.02.24-.06.36-.1v.86c-.12.06-.28.1-.46.14-.18.04-.38.05-.6.05-.25,0-.48-.04-.68-.12-.2-.08-.36-.22-.47-.43-.12-.2-.17-.49-.17-.85v-2.04h-.55v-.49l.64-.39.33-.89h.74v.9h1.19v.87h-1.19v2.04c0,.16.05.28.14.36.09.08.21.12.36.12Z"/>
    <path class="cls-6" d="M356.39,536.62c0,.7-.18,1.25-.55,1.63-.37.38-.87.57-1.51.57-.39,0-.74-.08-1.05-.26-.31-.17-.55-.42-.72-.75s-.26-.73-.26-1.2c0-.7.18-1.24.55-1.62.37-.38.87-.57,1.51-.57.4,0,.75.08,1.05.26.31.17.55.42.72.74.18.33.26.72.26,1.19ZM353.47,536.62c0,.42.07.74.21.95.14.21.36.32.67.32s.53-.11.66-.32c.14-.21.21-.53.21-.95s-.07-.73-.21-.94c-.14-.21-.36-.31-.67-.31s-.53.11-.66.31c-.14.21-.21.52-.21.94Z"/>
    <path class="cls-6" d="M359.75,534.43c.45,0,.82.12,1.09.37s.41.64.41,1.18v2.76h-1.15v-2.47c0-.3-.05-.53-.16-.69-.11-.15-.28-.23-.52-.23-.35,0-.59.12-.72.36-.13.24-.19.58-.19,1.03v1.99h-1.15v-4.23h.88l.15.54h.06c.13-.22.32-.38.55-.47.23-.1.48-.15.75-.15Z"/>
    <path class="cls-6" d="M364.18,534.43c.58,0,1.05.17,1.39.5.34.33.51.81.51,1.42v.56h-2.73c.01.33.11.58.29.77.18.19.44.28.76.28.27,0,.52-.03.74-.08.22-.05.46-.14.69-.25v.89c-.21.1-.43.18-.66.23-.23.05-.5.07-.83.07-.42,0-.8-.08-1.12-.24-.33-.16-.58-.4-.77-.71-.19-.32-.28-.72-.28-1.21s.08-.9.25-1.23.4-.58.7-.74c.3-.17.65-.25,1.05-.25ZM364.19,535.25c-.23,0-.41.07-.56.22-.15.14-.23.37-.26.67h1.62c0-.25-.07-.46-.21-.64-.13-.17-.33-.26-.6-.26Z"/>
    <path class="cls-6" d="M366.85,535.08c0-.24.06-.4.19-.5.13-.1.29-.14.47-.14s.34.05.46.14c.13.1.19.26.19.5s-.06.39-.19.49c-.13.1-.28.15-.46.15s-.34-.05-.47-.15c-.13-.1-.19-.26-.19-.49ZM366.85,538.2c0-.24.06-.4.19-.5.13-.1.29-.14.47-.14s.34.05.46.14c.13.1.19.26.19.5s-.06.39-.19.49c-.13.1-.28.15-.46.15s-.34-.05-.47-.15c-.13-.1-.19-.26-.19-.49Z"/>
    <path class="cls-6" d="M379.23,534.49c0,.37-.11.67-.33.9-.22.23-.5.38-.84.44v.03c.43.05.76.19.99.42.23.23.34.54.34.93,0,.48-.17.86-.5,1.16s-.84.45-1.51.45c-.3,0-.58-.03-.83-.08-.26-.05-.49-.13-.7-.23v-.43c.21.1.45.19.73.26s.54.1.81.1c.53,0,.92-.11,1.17-.34.25-.22.38-.53.38-.91,0-.4-.15-.69-.45-.86-.3-.17-.7-.26-1.2-.26h-.59v-.39h.6c.43,0,.78-.1,1.06-.3.28-.2.42-.49.42-.87,0-.33-.11-.57-.32-.74-.21-.17-.49-.25-.85-.25-.29,0-.56.04-.79.13-.23.09-.47.21-.69.36l-.23-.31c.21-.17.46-.3.74-.41s.6-.16.96-.16c.52,0,.92.12,1.2.37.28.25.43.57.43.99Z"/>
    <path class="cls-6" d="M382.04,535.39c.56,0,1.01.14,1.34.43s.49.68.49,1.2c0,.56-.18,1-.54,1.32s-.85.48-1.47.48c-.29,0-.55-.03-.79-.08s-.45-.13-.62-.22v-.44c.18.11.4.2.65.26.25.07.51.1.77.1.47,0,.85-.12,1.13-.35.28-.24.43-.58.43-1.03,0-.4-.12-.72-.37-.94-.25-.22-.62-.33-1.12-.33-.2,0-.39.01-.57.04-.19.03-.36.06-.51.1l-.24-.16.22-2.55h2.68v.4h-2.31l-.16,1.91c.11-.02.25-.05.41-.08.17-.03.36-.05.58-.05Z"/>
    <path class="cls-6" d="M386.47,535.39c.56,0,1.01.14,1.34.43s.49.68.49,1.2c0,.56-.18,1-.54,1.32s-.85.48-1.47.48c-.29,0-.55-.03-.79-.08s-.45-.13-.62-.22v-.44c.18.11.4.2.65.26.25.07.51.1.77.1.47,0,.85-.12,1.13-.35.28-.24.43-.58.43-1.03,0-.4-.12-.72-.37-.94-.25-.22-.62-.33-1.12-.33-.2,0-.39.01-.57.04-.19.03-.36.06-.51.1l-.24-.16.22-2.55h2.68v.4h-2.31l-.16,1.91c.11-.02.25-.05.41-.08.17-.03.36-.05.58-.05Z"/>
    <path class="cls-6" d="M336.98,543.8c-.45,0-.79.17-1.03.5s-.36.8-.36,1.38.11,1.04.33,1.37c.22.32.57.48,1.06.48.22,0,.45-.03.67-.08s.47-.12.74-.22v.98c-.24.1-.48.17-.72.22-.24.05-.5.07-.8.07-.57,0-1.04-.12-1.41-.35-.37-.24-.64-.57-.81-.99-.18-.43-.26-.92-.26-1.49s.1-1.05.3-1.48c.2-.43.49-.76.88-1.01.38-.24.86-.36,1.41-.36.27,0,.55.04.83.1.28.07.54.16.79.28l-.38.95c-.21-.1-.41-.18-.62-.26s-.41-.11-.62-.11Z"/>
    <path class="cls-6" d="M341.91,548.43l-1.33-4.34h-.03c0,.1.01.26.02.46s.02.43.03.67c.01.24.02.45.02.63v2.57h-1.05v-5.53h1.6l1.31,4.23h.02l1.39-4.23h1.6v5.53h-1.09v-2.62c0-.18,0-.38.01-.6,0-.23.02-.44.02-.65s.01-.36.02-.46h-.03l-1.43,4.33h-1.08Z"/>
    <path class="cls-6" d="M348.6,545.18l1.15-2.28h1.26l-1.84,3.38v2.15h-1.16v-2.12l-1.84-3.42h1.27l1.15,2.28Z"/>
    <path class="cls-6" d="M356.17,548.43h-1.33l-1.45-2.33-.5.36v1.98h-1.17v-5.53h1.17v2.53c.08-.11.16-.22.23-.33.08-.11.15-.22.23-.33l1.5-1.88h1.3l-1.93,2.45,1.95,3.08Z"/>
    <path class="cls-6" d="M356.61,544.76c0-.24.06-.4.19-.5.13-.09.29-.14.47-.14s.34.05.46.14c.13.1.19.26.19.5s-.06.39-.19.49c-.13.1-.28.15-.46.15s-.34-.05-.47-.15c-.13-.1-.19-.26-.19-.49ZM356.61,547.89c0-.24.06-.4.19-.5.13-.1.29-.14.47-.14s.34.05.46.14c.13.1.19.26.19.5s-.06.39-.19.49c-.13.1-.28.15-.46.15s-.34-.05-.47-.15c-.13-.1-.19-.26-.19-.49Z"/>
    <path class="cls-6" d="M378.63,543.22c-.46,0-.84.1-1.17.31s-.57.49-.75.85-.26.79-.26,1.28.08.93.24,1.29c.16.37.39.65.7.85.31.2.7.3,1.16.3.27,0,.52-.02.74-.06.22-.04.44-.09.64-.15v.39c-.19.07-.4.13-.63.17-.23.04-.5.06-.79.06-.56,0-1.02-.12-1.4-.36-.38-.24-.66-.57-.85-1-.19-.43-.28-.93-.28-1.5s.1-1.03.31-1.46.51-.76.91-1c.4-.24.87-.36,1.43-.36s1.03.1,1.46.31l-.18.39c-.4-.2-.83-.29-1.28-.29Z"/>
    <path class="cls-6" d="M384.28,545.24c0,.66-.08,1.24-.25,1.73-.17.49-.43.87-.79,1.14-.36.27-.82.4-1.39.4-.12,0-.26,0-.4-.02-.15-.02-.26-.04-.36-.07v-.39c.21.08.46.12.76.12.66,0,1.15-.23,1.47-.68s.49-1.09.52-1.92h-.03c-.11.2-.28.38-.53.54-.24.16-.56.24-.95.24-.49,0-.88-.15-1.17-.45-.29-.3-.43-.71-.43-1.23,0-.37.07-.69.21-.96s.34-.49.59-.64.56-.23.92-.23c.4,0,.73.1,1,.31.27.21.48.49.62.86.14.36.21.78.21,1.26ZM382.45,543.21c-.39,0-.7.12-.93.37-.23.25-.35.6-.35,1.07,0,.41.1.74.31.97s.52.35.93.35c.28,0,.53-.06.74-.17.21-.11.37-.26.49-.43.11-.17.17-.34.17-.51,0-.16-.02-.33-.07-.52s-.12-.37-.23-.54c-.11-.17-.25-.31-.42-.42-.17-.11-.39-.16-.65-.16Z"/>
    <path class="cls-6" d="M385.99,548.43l2.28-5.13h-3.12v-.4h3.6v.33l-2.28,5.21h-.48Z"/>
    <path class="cls-6" d="M394.37,548.43l-1.98-5.05h-.03c.01.14.02.3.02.48,0,.18,0,.38,0,.58v3.98h-.42v-5.53h.68l1.91,4.85h.02l1.93-4.85h.67v5.53h-.45v-4.03c0-.18,0-.35,0-.53,0-.18.01-.34.02-.49h-.02l-2,5.05h-.36Z"/>
    <path class="cls-6" d="M401.87,548.43h-3.5v-.37l1.59-1.65c.26-.27.49-.52.67-.74s.32-.43.41-.65c.09-.22.14-.46.14-.73,0-.35-.1-.61-.3-.8s-.47-.28-.81-.28c-.25,0-.48.04-.7.13-.22.09-.43.21-.64.38l-.24-.31c.23-.19.48-.33.74-.43s.55-.16.84-.16c.48,0,.86.13,1.14.4s.43.62.43,1.06c0,.3-.05.57-.16.82s-.26.49-.45.73c-.19.24-.43.49-.69.76l-1.39,1.42v.02h2.94v.4Z"/>
    <path class="cls-6" d="M406.47,545.86l1.58-2.96h.5l-1.84,3.39v2.14h-.45v-2.11l-1.86-3.43h.5l1.58,2.96Z"/>
    <path class="cls-6" d="M412.5,545.24c0,.66-.08,1.24-.25,1.73-.17.49-.43.87-.79,1.14-.36.27-.82.4-1.39.4-.12,0-.26,0-.4-.02-.15-.02-.26-.04-.36-.07v-.39c.21.08.46.12.76.12.66,0,1.15-.23,1.47-.68s.49-1.09.52-1.92h-.03c-.11.2-.28.38-.53.54-.24.16-.56.24-.95.24-.49,0-.88-.15-1.17-.45-.29-.3-.43-.71-.43-1.23,0-.37.07-.69.21-.96s.34-.49.59-.64.56-.23.92-.23c.4,0,.73.1,1,.31.27.21.48.49.62.86.14.36.21.78.21,1.26ZM410.67,543.21c-.39,0-.7.12-.93.37-.23.25-.35.6-.35,1.07,0,.41.1.74.31.97s.52.35.93.35c.28,0,.53-.06.74-.17.21-.11.37-.26.49-.43.11-.17.17-.34.17-.51,0-.16-.02-.33-.07-.52s-.12-.37-.23-.54c-.11-.17-.25-.31-.42-.42-.17-.11-.39-.16-.65-.16Z"/>
    <path class="cls-6" d="M415.17,542.82c.48,0,.86.11,1.15.34.29.23.44.54.44.96,0,.34-.11.61-.33.83-.22.21-.5.4-.84.55.4.17.73.36.98.6.25.23.37.54.37.93,0,.32-.08.58-.23.81-.15.22-.36.39-.63.51s-.57.18-.91.18c-.54,0-.97-.13-1.29-.4s-.48-.62-.48-1.06c0-.27.06-.5.17-.69.11-.19.27-.36.46-.5.2-.14.42-.25.67-.35-.21-.1-.39-.21-.56-.33s-.3-.27-.4-.44c-.1-.17-.15-.38-.15-.62,0-.27.07-.5.21-.7.14-.2.32-.35.56-.45s.51-.16.81-.16ZM413.84,547.05c0,.33.11.59.34.79s.55.3.96.3.74-.1.98-.3.36-.47.36-.83c0-.3-.11-.55-.32-.75s-.52-.37-.9-.51l-.17-.06c-.38.14-.69.31-.92.51s-.34.48-.34.83ZM415.17,543.19c-.33,0-.6.08-.82.25-.22.17-.33.4-.33.7s.11.54.33.72c.22.17.5.32.85.45.35-.14.62-.3.82-.48s.3-.41.3-.71-.1-.53-.31-.69-.49-.24-.84-.24Z"/>
    <path class="cls-6" d="M423.97,548.43h-.54l-2.1-2.87-.69.66v2.21h-.45v-5.53h.45v2.88c.1-.12.21-.24.33-.36.11-.12.23-.24.34-.37l2.05-2.15h.56l-2.25,2.36,2.31,3.18Z"/>
    <path class="cls-6" d="M426.59,548.43h-.43v-4.66c0-.14,0-.28.02-.41-.07.07-.14.13-.2.19s-.14.12-.25.2l-.77.59-.23-.31,1.5-1.13h.37v5.53Z"/>
    <path class="cls-6" d="M432.31,548.43h-3.5v-.37l1.59-1.65c.26-.27.49-.52.67-.74s.32-.43.41-.65c.09-.22.14-.46.14-.73,0-.35-.1-.61-.3-.8s-.47-.28-.81-.28c-.25,0-.48.04-.7.13-.22.09-.43.21-.64.38l-.24-.31c.23-.19.48-.33.74-.43s.55-.16.84-.16c.48,0,.86.13,1.14.4s.43.62.43,1.06c0,.3-.05.57-.16.82s-.26.49-.45.73c-.19.24-.43.49-.69.76l-1.39,1.42v.02h2.94v.4Z"/>
    <path class="cls-6" d="M336.25,552.58c.75,0,1.31.14,1.67.41.36.27.54.69.54,1.25,0,.25-.05.47-.14.66s-.22.35-.38.48c-.16.13-.33.24-.51.32l1.63,2.41h-1.3l-1.32-2.12h-.63v2.12h-1.17v-5.53h1.61ZM336.16,553.55h-.36v1.5h.38c.39,0,.67-.06.83-.19.17-.13.25-.32.25-.57s-.09-.45-.27-.56c-.18-.11-.46-.17-.84-.17Z"/>
    <path class="cls-6" d="M341.85,555.01h2.19v2.87c-.29.1-.59.18-.91.23s-.67.08-1.06.08c-.83,0-1.46-.24-1.91-.73-.44-.49-.67-1.19-.67-2.12,0-.58.11-1.08.33-1.5s.55-.75.98-.98.96-.35,1.58-.35c.29,0,.58.03.87.09.28.06.54.14.77.25l-.39.94c-.17-.09-.36-.16-.58-.22-.22-.06-.44-.08-.68-.08-.34,0-.64.08-.89.23s-.44.37-.58.66c-.14.28-.21.62-.21.99s.05.68.15.96c.1.28.25.5.47.66.21.16.49.24.83.24.17,0,.3,0,.42-.02s.22-.03.33-.05v-1.16h-1.05v-.98Z"/>
    <path class="cls-6" d="M345.36,552.58h1.72c.73,0,1.29.1,1.67.31.38.21.57.57.57,1.09,0,.31-.07.58-.22.8-.15.22-.36.35-.63.4v.04c.18.04.35.11.5.2s.27.22.36.4c.09.18.13.41.13.7,0,.5-.18.89-.55,1.18s-.86.43-1.48.43h-2.07v-5.53ZM346.53,554.78h.68c.34,0,.58-.05.71-.16.13-.11.2-.26.2-.48s-.08-.36-.23-.46c-.15-.09-.4-.14-.74-.14h-.62v1.23ZM346.53,555.71v1.44h.77c.35,0,.6-.07.74-.21.14-.14.21-.32.21-.55,0-.21-.07-.37-.21-.5s-.4-.19-.77-.19h-.73Z"/>
    <path class="cls-6" d="M350.31,554.45c0-.24.06-.4.19-.5.13-.1.29-.14.47-.14s.34.05.46.14c.13.1.19.26.19.5s-.06.39-.19.49c-.13.1-.28.15-.46.15s-.34-.05-.47-.15c-.13-.1-.19-.26-.19-.49ZM350.31,557.58c0-.24.06-.4.19-.5.13-.1.29-.14.47-.14s.34.05.46.14c.13.1.19.26.19.5s-.06.39-.19.49c-.13.1-.28.15-.46.15s-.34-.05-.47-.15c-.13-.1-.19-.26-.19-.49Z"/>
    <path class="cls-6" d="M377.65,552.58c.66,0,1.16.12,1.49.35.33.23.5.62.5,1.17,0,.42-.11.75-.34.99-.23.24-.51.41-.84.51l1.52,2.51h-.53l-1.41-2.39h-1.32v2.39h-.45v-5.53h1.38ZM377.61,552.99h-.89v2.36h1.05c.45,0,.8-.11,1.04-.32.25-.21.37-.51.37-.91,0-.42-.13-.72-.38-.88-.26-.17-.65-.25-1.18-.25Z"/>
    <path class="cls-6" d="M384.14,555.34c0,.92-.14,1.63-.43,2.12-.29.49-.74.74-1.35.74s-1.03-.24-1.33-.73c-.3-.49-.45-1.2-.45-2.13,0-.56.06-1.06.17-1.48.12-.43.3-.76.57-1,.26-.24.61-.36,1.04-.36s.77.12,1.03.35c.26.23.45.56.57.99.12.43.18.93.18,1.5ZM381.02,555.34c0,.83.11,1.45.32,1.86s.55.61,1.01.61.81-.2,1.02-.61c.21-.41.31-1.03.31-1.86,0-.51-.04-.95-.12-1.32-.08-.37-.22-.65-.41-.84-.19-.19-.46-.29-.79-.29s-.6.1-.8.29c-.2.2-.34.48-.42.84-.08.37-.12.8-.12,1.31Z"/>
    <path class="cls-6" d="M389.59,555.3h2.01v2.57c-.27.11-.55.19-.85.24-.3.05-.63.08-.98.08-.88,0-1.55-.25-2.01-.75-.46-.5-.69-1.2-.69-2.08,0-.56.11-1.05.34-1.48.22-.43.55-.77.97-1.01.42-.24.93-.36,1.53-.36.3,0,.59.03.86.08.27.06.53.14.77.25l-.19.4c-.47-.22-.96-.33-1.47-.33s-.9.1-1.25.31c-.35.21-.62.5-.81.86-.19.37-.28.8-.28,1.28,0,.8.2,1.4.59,1.82.4.42.97.62,1.73.62.27,0,.51-.02.72-.06.21-.04.4-.09.57-.14v-1.89h-1.56v-.41Z"/>
    <path class="cls-6" d="M394.82,558.12h-.43v-4.66c0-.14,0-.28.02-.41-.07.07-.14.13-.2.19s-.14.12-.25.2l-.77.59-.23-.31,1.5-1.13h.37v5.53Z"/>
    <path class="cls-6" d="M398.75,554.77c.56,0,1.01.14,1.34.43s.49.68.49,1.2c0,.56-.18,1-.54,1.32s-.85.48-1.47.48c-.29,0-.55-.03-.79-.08s-.45-.13-.62-.22v-.44c.18.11.4.2.65.26.25.07.51.1.77.1.47,0,.85-.12,1.13-.35.28-.24.43-.58.43-1.03,0-.4-.12-.72-.37-.94-.25-.22-.62-.33-1.12-.33-.2,0-.39.01-.57.04-.19.03-.36.06-.51.1l-.24-.16.22-2.55h2.68v.4h-2.31l-.16,1.91c.11-.02.25-.05.41-.08.17-.03.36-.05.58-.05Z"/>
    <path class="cls-6" d="M404.78,553.86c0,.37-.11.67-.33.9-.22.23-.5.38-.84.44v.03c.43.05.76.19.99.42.23.23.34.54.34.93,0,.48-.17.86-.5,1.16s-.84.45-1.51.45c-.3,0-.58-.03-.83-.08-.26-.05-.49-.13-.7-.23v-.43c.21.1.45.19.73.26s.54.1.81.1c.53,0,.92-.11,1.17-.34.25-.22.38-.53.38-.91,0-.4-.15-.69-.45-.86-.3-.17-.7-.26-1.2-.26h-.59v-.39h.6c.43,0,.78-.1,1.06-.3.28-.2.42-.49.42-.87,0-.33-.11-.57-.32-.74-.21-.17-.49-.25-.85-.25-.29,0-.56.04-.79.13-.23.09-.47.21-.69.36l-.23-.31c.21-.17.46-.3.74-.41s.6-.16.96-.16c.52,0,.92.12,1.2.37.28.25.43.57.43.99Z"/>
    <path class="cls-6" d="M408.26,552.58h1.53c.68,0,1.19.11,1.51.32.33.21.49.56.49,1.03,0,.32-.09.59-.28.82-.19.23-.45.37-.8.43v.03c.4.06.71.2.92.42.21.21.31.52.31.91,0,.36-.08.65-.24.88s-.39.41-.68.52c-.29.11-.63.17-1.01.17h-1.75v-5.53ZM408.71,555.03h1.19c.51,0,.87-.09,1.1-.26.22-.18.34-.44.34-.78s-.12-.61-.36-.77c-.24-.16-.63-.23-1.17-.23h-1.08v2.05ZM408.71,555.41v2.32h1.26c1,0,1.5-.4,1.5-1.21,0-.38-.13-.66-.38-.84-.26-.18-.65-.27-1.19-.27h-1.19Z"/>
    <path class="cls-6" d="M414.51,554.77c.56,0,1.01.14,1.34.43s.49.68.49,1.2c0,.56-.18,1-.54,1.32s-.85.48-1.47.48c-.29,0-.55-.03-.79-.08s-.45-.13-.62-.22v-.44c.18.11.4.2.65.26.25.07.51.1.77.1.47,0,.85-.12,1.13-.35.28-.24.43-.58.43-1.03,0-.4-.12-.72-.37-.94-.25-.22-.62-.33-1.12-.33-.2,0-.39.01-.57.04-.19.03-.36.06-.51.1l-.24-.16.22-2.55h2.68v.4h-2.31l-.16,1.91c.11-.02.25-.05.41-.08.17-.03.36-.05.58-.05Z"/>
    <path class="cls-6" d="M419.43,558.12h-.43v-4.66c0-.14,0-.28.02-.41-.07.07-.14.13-.2.19s-.14.12-.25.2l-.77.59-.23-.31,1.5-1.13h.37v5.53Z"/>
    <path class="cls-6" d="M339.17,567.81h-1.17v-2.39h-2.19v2.39h-1.17v-5.53h1.17v2.17h2.19v-2.17h1.17v5.53Z"/>
    <path class="cls-6" d="M343.75,567.81h-3.19v-5.53h3.19v.96h-2.02v1.22h1.88v.96h-1.88v1.43h2.02v.97Z"/>
    <path class="cls-6" d="M349.38,567.81h-1.34l-1.29-2.09-1.29,2.09h-1.26l1.84-2.85-1.72-2.68h1.29l1.19,1.99,1.17-1.99h1.26l-1.74,2.74,1.87,2.79Z"/>
    <path class="cls-6" d="M349.82,564.14c0-.24.06-.4.19-.5.13-.1.29-.14.47-.14s.34.05.46.14c.13.1.19.26.19.5s-.06.39-.19.49c-.13.1-.28.15-.46.15s-.34-.05-.47-.15c-.13-.1-.19-.26-.19-.49ZM349.82,567.26c0-.24.06-.4.19-.5.13-.1.29-.14.47-.14s.34.05.46.14c.13.1.19.26.19.5s-.06.39-.19.49c-.13.1-.28.15-.46.15s-.34-.05-.47-.15c-.13-.1-.19-.26-.19-.49Z"/>
    <path class="cls-6" d="M379.17,564.33l-.28,1.43h1.12v.36h-1.19l-.33,1.69h-.37l.33-1.69h-1.33l-.33,1.69h-.36l.32-1.69h-1.05v-.36h1.12l.29-1.43h-1.11v-.35h1.17l.33-1.71h.38l-.33,1.71h1.33l.33-1.71h.36l-.33,1.71h1.06v.35h-1.12ZM377.19,565.76h1.33l.28-1.43h-1.33l-.28,1.43Z"/>
    <path class="cls-6" d="M384.49,565.02c0,.92-.14,1.63-.43,2.12-.29.49-.74.74-1.35.74s-1.03-.24-1.33-.73c-.3-.49-.45-1.2-.45-2.13,0-.56.06-1.06.17-1.48.12-.43.3-.76.57-1,.26-.24.61-.36,1.04-.36s.77.12,1.03.35c.26.23.45.56.57.99.12.43.18.93.18,1.5ZM381.38,565.02c0,.83.11,1.45.32,1.86s.55.61,1.01.61.81-.2,1.02-.61c.21-.41.31-1.03.31-1.86,0-.51-.04-.95-.12-1.32-.08-.37-.22-.65-.41-.84-.19-.19-.46-.29-.79-.29s-.6.1-.8.29c-.2.2-.34.48-.42.84-.08.37-.12.8-.12,1.31Z"/>
    <path class="cls-6" d="M388.92,565.02c0,.92-.14,1.63-.43,2.12-.29.49-.74.74-1.35.74s-1.03-.24-1.33-.73c-.3-.49-.45-1.2-.45-2.13,0-.56.06-1.06.17-1.48.12-.43.3-.76.57-1,.26-.24.61-.36,1.04-.36s.77.12,1.03.35c.26.23.45.56.57.99.12.43.18.93.18,1.5ZM385.8,565.02c0,.83.11,1.45.32,1.86s.55.61,1.01.61.81-.2,1.02-.61c.21-.41.31-1.03.31-1.86,0-.51-.04-.95-.12-1.32-.08-.37-.22-.65-.41-.84-.19-.19-.46-.29-.79-.29s-.6.1-.8.29c-.2.2-.34.48-.42.84-.08.37-.12.8-.12,1.31Z"/>
    <path class="cls-6" d="M393.31,564.62c0,.66-.08,1.24-.25,1.73-.17.49-.43.87-.79,1.14-.36.27-.82.4-1.39.4-.12,0-.26,0-.4-.02-.15-.02-.26-.04-.36-.07v-.4c.21.08.46.12.76.12.66,0,1.15-.23,1.47-.68s.49-1.09.52-1.92h-.03c-.11.2-.28.38-.53.54-.24.16-.56.24-.95.24-.49,0-.88-.15-1.17-.45-.29-.3-.43-.71-.43-1.23,0-.37.07-.69.21-.96s.34-.49.59-.64.56-.23.92-.23c.4,0,.73.1,1,.31.27.21.48.49.62.86.14.36.21.78.21,1.26ZM391.48,562.58c-.39,0-.7.12-.93.37-.23.25-.35.61-.35,1.07,0,.41.1.74.31.97s.52.35.93.35c.28,0,.53-.06.74-.17.21-.11.37-.26.49-.43.11-.17.17-.34.17-.52,0-.16-.02-.33-.07-.52-.05-.19-.12-.37-.23-.54-.11-.17-.25-.31-.42-.42-.17-.11-.39-.16-.65-.16Z"/>
    <path class="cls-6" d="M397.73,564.62c0,.66-.08,1.24-.25,1.73-.17.49-.43.87-.79,1.14-.36.27-.82.4-1.39.4-.12,0-.26,0-.4-.02-.15-.02-.26-.04-.36-.07v-.4c.21.08.46.12.76.12.66,0,1.15-.23,1.47-.68s.49-1.09.52-1.92h-.03c-.11.2-.28.38-.53.54-.24.16-.56.24-.95.24-.49,0-.88-.15-1.17-.45-.29-.3-.43-.71-.43-1.23,0-.37.07-.69.21-.96s.34-.49.59-.64.56-.23.92-.23c.4,0,.73.1,1,.31.27.21.48.49.62.86.14.36.21.78.21,1.26ZM395.9,562.58c-.39,0-.7.12-.93.37-.23.25-.35.61-.35,1.07,0,.41.1.74.31.97s.52.35.93.35c.28,0,.53-.06.74-.17.21-.11.37-.26.49-.43.11-.17.17-.34.17-.52,0-.16-.02-.33-.07-.52-.05-.19-.12-.37-.23-.54-.11-.17-.25-.31-.42-.42-.17-.11-.39-.16-.65-.16Z"/>
    <path class="cls-6" d="M401.94,563.55c0,.37-.11.67-.33.9-.22.23-.5.38-.84.44v.03c.43.05.76.19.99.42.23.23.34.54.34.93,0,.48-.17.86-.5,1.16s-.84.45-1.51.45c-.3,0-.58-.03-.83-.08-.26-.05-.49-.13-.7-.23v-.43c.21.1.45.19.73.26s.54.1.81.1c.53,0,.92-.11,1.17-.34.25-.22.38-.53.38-.91,0-.4-.15-.69-.45-.86-.3-.17-.7-.26-1.2-.26h-.59v-.39h.6c.43,0,.78-.1,1.06-.3.28-.2.42-.49.42-.87,0-.33-.11-.57-.32-.74-.21-.17-.49-.25-.85-.25-.29,0-.56.04-.79.13-.23.09-.47.21-.69.36l-.23-.31c.21-.17.46-.3.74-.41s.6-.16.96-.16c.52,0,.92.12,1.2.37.28.25.43.57.43.99Z"/>
    <path class="cls-6" d="M406.36,563.55c0,.37-.11.67-.33.9-.22.23-.5.38-.84.44v.03c.43.05.76.19.99.42.23.23.34.54.34.93,0,.48-.17.86-.5,1.16s-.84.45-1.51.45c-.3,0-.58-.03-.83-.08-.26-.05-.49-.13-.7-.23v-.43c.21.1.45.19.73.26s.54.1.81.1c.53,0,.92-.11,1.17-.34.25-.22.38-.53.38-.91,0-.4-.15-.69-.45-.86-.3-.17-.7-.26-1.2-.26h-.59v-.39h.6c.43,0,.78-.1,1.06-.3.28-.2.42-.49.42-.87,0-.33-.11-.57-.32-.74-.21-.17-.49-.25-.85-.25-.29,0-.56.04-.79.13-.23.09-.47.21-.69.36l-.23-.31c.21-.17.46-.3.74-.41s.6-.16.96-.16c.52,0,.92.12,1.2.37.28.25.43.57.43.99Z"/>
  </g>
  <g>
    <path class="cls-8" d="M532.84,529.05h-2.52v-.67l.67-.31v-3.58l-.67-.31v-.67h2.52v.67l-.67.31v3.58l.67.31v.67Z"/>
    <path class="cls-8" d="M538.69,529.05h-1.49l-2.41-4.19h-.03c.01.26.02.53.03.79.01.26.02.53.03.79v2.6h-1.05v-5.53h1.48l2.4,4.15h.02c-.01-.25-.02-.51-.03-.76-.01-.25-.02-.51-.02-.77v-2.62h1.05v5.53Z"/>
    <path class="cls-8" d="M544.67,526.23c0,.94-.27,1.64-.8,2.11-.53.47-1.27.71-2.22.71h-1.57v-5.53h1.74c.58,0,1.08.1,1.51.31.43.21.76.51.99.91.24.4.35.9.35,1.49ZM543.46,526.26c0-.61-.13-1.06-.4-1.35-.27-.29-.66-.43-1.17-.43h-.63v3.6h.5c1.13,0,1.7-.61,1.7-1.82Z"/>
    <path class="cls-8" d="M550.84,526.28c0,.57-.09,1.07-.28,1.5-.19.43-.48.76-.87,1s-.88.36-1.48.36-1.09-.12-1.48-.36-.68-.57-.87-1-.28-.93-.28-1.5.09-1.07.28-1.5.48-.75.87-.99.89-.35,1.49-.35,1.09.12,1.48.35.68.57.86.99c.19.43.28.93.28,1.5ZM546.81,526.28c0,.58.11,1.04.33,1.37.22.33.58.5,1.07.5s.86-.17,1.08-.5c.22-.33.33-.79.33-1.37s-.11-1.03-.33-1.37c-.22-.33-.57-.5-1.07-.5s-.85.17-1.08.5c-.22.33-.33.79-.33,1.37Z"/>
    <path class="cls-8" d="M553.6,523.52c.75,0,1.31.14,1.67.41.36.27.54.69.54,1.25,0,.25-.05.47-.14.66s-.22.35-.38.48c-.16.13-.33.24-.51.32l1.63,2.41h-1.3l-1.32-2.12h-.63v2.12h-1.17v-5.53h1.61ZM553.52,524.48h-.36v1.5h.38c.39,0,.67-.06.83-.19.17-.13.25-.32.25-.57s-.09-.45-.27-.56c-.18-.11-.46-.17-.84-.17Z"/>
    <path class="cls-8" d="M560.49,529.05l-.4-1.32h-2.02l-.4,1.32h-1.26l1.95-5.56h1.43l1.96,5.56h-1.26ZM559.81,526.75l-.4-1.29c-.03-.09-.06-.2-.1-.33-.04-.13-.08-.27-.12-.41-.04-.14-.08-.26-.1-.36-.03.1-.06.23-.1.38s-.09.3-.12.43c-.04.14-.07.23-.09.29l-.4,1.29h1.44Z"/>
    <path class="cls-8" d="M564.79,529.05l-1.33-4.34h-.03c0,.1.01.26.02.46.01.21.02.43.03.67.01.24.02.45.02.64v2.57h-1.05v-5.53h1.6l1.31,4.23h.02l1.39-4.23h1.6v5.53h-1.09v-2.62c0-.18,0-.38.01-.6,0-.23.02-.44.02-.65,0-.2.01-.36.02-.46h-.03l-1.43,4.33h-1.08Z"/>
    <path class="cls-8" d="M573.15,529.05l-.4-1.32h-2.02l-.4,1.32h-1.26l1.95-5.56h1.43l1.96,5.56h-1.26ZM572.47,526.75l-.4-1.29c-.03-.09-.06-.2-.1-.33-.04-.13-.08-.27-.12-.41-.04-.14-.08-.26-.1-.36-.03.1-.06.23-.1.38s-.09.3-.12.43c-.04.14-.07.23-.09.29l-.4,1.29h1.44Z"/>
    <path class="cls-8" d="M581.46,523.52l-1.88,5.53h-1.28l-1.88-5.53h1.19l1.04,3.29c.01.06.04.16.08.31.04.15.08.31.12.48.04.17.07.31.08.42.02-.11.04-.25.08-.42.04-.17.08-.33.12-.48.04-.15.07-.26.09-.31l1.05-3.29h1.19Z"/>
    <path class="cls-8" d="M585.35,529.05h-3.18v-5.53h3.18v.96h-2.01v1.22h1.88v.96h-1.88v1.43h2.01v.97Z"/>
    <path class="cls-8" d="M591.41,529.05h-1.49l-2.41-4.19h-.03c.01.26.02.53.04.79.01.26.02.53.03.79v2.6h-1.05v-5.53h1.48l2.4,4.15h.02c-.01-.25-.02-.51-.03-.76,0-.25-.02-.51-.02-.77v-2.62h1.05v5.53Z"/>
    <path class="cls-8" d="M594.94,529.05h-1.17v-4.56h-1.5v-.98h4.18v.98h-1.5v4.56Z"/>
    <path class="cls-8" d="M601.79,523.52v3.58c0,.38-.08.73-.25,1.03-.17.31-.42.55-.76.73-.34.18-.77.27-1.28.27-.73,0-1.29-.19-1.67-.56-.38-.38-.57-.87-.57-1.48v-3.57h1.17v3.39c0,.46.09.78.28.96.19.18.46.28.83.28s.66-.1.83-.3c.17-.2.26-.52.26-.95v-3.38h1.17Z"/>
    <path class="cls-8" d="M604.76,523.52c.75,0,1.31.14,1.67.41.36.27.54.69.54,1.25,0,.25-.05.47-.14.66s-.22.35-.38.48c-.16.13-.33.24-.51.32l1.63,2.41h-1.3l-1.32-2.12h-.63v2.12h-1.17v-5.53h1.61ZM604.68,524.48h-.36v1.5h.38c.39,0,.67-.06.83-.19.17-.13.25-.32.25-.57s-.09-.45-.27-.56-.46-.17-.84-.17Z"/>
    <path class="cls-8" d="M611.45,529.05h-3.18v-5.53h3.18v.96h-2.01v1.22h1.88v.96h-1.88v1.43h2.01v.97Z"/>
    <path class="cls-8" d="M615.87,527.52c0,.49-.18.88-.53,1.17-.35.29-.86.44-1.51.44-.58,0-1.11-.11-1.57-.33v-1.09c.26.11.54.22.82.31s.56.14.84.14.5-.06.62-.17c.12-.11.18-.25.18-.42,0-.14-.05-.26-.14-.36-.1-.1-.22-.19-.38-.28s-.34-.18-.55-.28c-.13-.06-.27-.14-.42-.22-.15-.08-.29-.19-.43-.32-.14-.13-.25-.28-.34-.46-.09-.18-.13-.4-.13-.65,0-.5.17-.88.5-1.16s.79-.41,1.37-.41c.29,0,.56.03.82.1.26.07.53.16.82.29l-.38.91c-.25-.1-.48-.18-.68-.24-.2-.06-.41-.08-.62-.08s-.39.05-.51.15c-.12.1-.18.24-.18.4,0,.2.09.35.26.46.18.11.44.25.78.42.28.13.53.27.72.42.2.15.35.32.46.51s.16.44.16.73Z"/>
    <path class="cls-8" d="M620.5,523.52c.75,0,1.31.14,1.67.41.36.27.54.69.54,1.25,0,.25-.05.47-.14.66s-.22.35-.38.48c-.16.13-.33.24-.51.32l1.63,2.41h-1.3l-1.32-2.12h-.63v2.12h-1.17v-5.53h1.61ZM620.42,524.48h-.36v1.5h.38c.39,0,.67-.06.83-.19.17-.13.25-.32.25-.57s-.09-.45-.27-.56-.46-.17-.84-.17Z"/>
    <path class="cls-8" d="M627.19,529.05h-3.18v-5.53h3.18v.96h-2.01v1.22h1.88v.96h-1.88v1.43h2.01v.97Z"/>
    <path class="cls-8" d="M632.94,526.23c0,.94-.27,1.64-.8,2.11-.53.47-1.27.71-2.22.71h-1.57v-5.53h1.74c.58,0,1.08.1,1.51.31.43.21.76.51.99.91.24.4.35.9.35,1.49ZM631.72,526.26c0-.61-.13-1.06-.4-1.35-.27-.29-.66-.43-1.17-.43h-.63v3.6h.5c1.13,0,1.7-.61,1.7-1.82Z"/>
    <path class="cls-8" d="M532.54,533.21c.71,0,1.23.15,1.56.46.33.31.49.73.49,1.27,0,.33-.07.63-.2.91-.13.28-.36.5-.67.67s-.74.26-1.27.26h-.5v1.97h-1.17v-5.53h1.77ZM532.48,534.17h-.54v1.64h.39c.33,0,.59-.07.79-.2s.29-.34.29-.64c0-.54-.31-.81-.93-.81Z"/>
    <path class="cls-8" d="M537.28,534.43c.57,0,1,.12,1.31.37s.45.62.45,1.13v2.82h-.81l-.22-.57h-.03c-.18.23-.37.39-.57.5-.2.1-.48.16-.83.16-.38,0-.69-.11-.94-.33s-.37-.56-.37-1.02.16-.78.47-.99c.31-.21.79-.33,1.42-.36l.74-.02v-.19c0-.22-.06-.38-.17-.49-.12-.1-.28-.16-.48-.16s-.41.03-.6.09c-.2.06-.39.13-.59.22l-.38-.78c.22-.11.47-.21.75-.28.28-.07.57-.1.87-.1ZM537.89,536.78l-.45.02c-.37,0-.63.08-.77.2-.15.12-.22.29-.22.49,0,.18.05.3.16.38.1.08.24.11.4.11.25,0,.46-.07.63-.22s.26-.36.26-.62v-.35Z"/>
    <path class="cls-8" d="M542.63,534.43c.45,0,.82.12,1.09.37s.41.64.41,1.18v2.76h-1.15v-2.47c0-.3-.05-.53-.16-.69-.11-.15-.28-.23-.52-.23-.35,0-.59.12-.72.36-.13.24-.19.58-.19,1.03v1.99h-1.15v-4.23h.88l.15.54h.06c.13-.22.32-.38.55-.47.23-.1.48-.15.75-.15Z"/>
    <path class="cls-8" d="M547.1,537.9c.13,0,.25-.01.37-.04.12-.02.24-.06.36-.1v.86c-.12.06-.28.1-.46.14-.18.04-.38.05-.6.05-.25,0-.48-.04-.68-.12-.2-.08-.36-.22-.47-.43-.12-.2-.17-.49-.17-.85v-2.04h-.55v-.49l.64-.39.33-.89h.74v.9h1.19v.87h-1.19v2.04c0,.16.05.28.14.36.09.08.21.12.36.12Z"/>
    <path class="cls-8" d="M552.53,536.62c0,.7-.18,1.25-.55,1.63-.37.38-.87.57-1.51.57-.39,0-.74-.08-1.05-.26-.31-.17-.55-.42-.72-.75s-.26-.73-.26-1.2c0-.7.18-1.24.55-1.62.37-.38.87-.57,1.51-.57.4,0,.75.08,1.05.26.31.17.55.42.72.74.18.33.26.72.26,1.19ZM549.6,536.62c0,.42.07.74.21.95.14.21.36.32.67.32s.53-.11.66-.32c.14-.21.21-.53.21-.95s-.07-.73-.21-.94c-.14-.21-.36-.31-.67-.31s-.53.11-.66.31c-.14.21-.21.52-.21.94Z"/>
    <path class="cls-8" d="M555.88,534.43c.45,0,.82.12,1.09.37s.41.64.41,1.18v2.76h-1.15v-2.47c0-.3-.05-.53-.16-.69-.11-.15-.28-.23-.52-.23-.35,0-.59.12-.72.36-.13.24-.19.58-.19,1.03v1.99h-1.15v-4.23h.88l.15.54h.06c.13-.22.32-.38.55-.47.23-.1.48-.15.75-.15Z"/>
    <path class="cls-8" d="M560.31,534.43c.58,0,1.05.17,1.39.5.34.33.51.81.51,1.42v.56h-2.73c.01.33.11.58.29.77.18.19.44.28.76.28.27,0,.52-.03.74-.08.22-.05.46-.14.69-.25v.89c-.21.1-.43.18-.66.23-.23.05-.5.07-.83.07-.42,0-.8-.08-1.12-.24-.33-.16-.58-.4-.77-.71-.19-.32-.28-.72-.28-1.21s.08-.9.25-1.23.4-.58.7-.74c.3-.17.65-.25,1.05-.25ZM560.32,535.25c-.23,0-.41.07-.56.22-.15.14-.23.37-.26.67h1.62c0-.25-.07-.46-.21-.64-.13-.17-.33-.26-.6-.26Z"/>
    <path class="cls-8" d="M562.99,535.08c0-.24.06-.4.19-.5.13-.1.29-.14.47-.14s.34.05.46.14c.13.1.19.26.19.5s-.06.39-.19.49c-.13.1-.28.15-.46.15s-.34-.05-.47-.15c-.13-.1-.19-.26-.19-.49ZM562.99,538.2c0-.24.06-.4.19-.5.13-.1.29-.14.47-.14s.34.05.46.14c.13.1.19.26.19.5s-.06.39-.19.49c-.13.1-.28.15-.46.15s-.34-.05-.47-.15c-.13-.1-.19-.26-.19-.49Z"/>
    <path class="cls-8" d="M574.25,538.74h-.43v-4.66c0-.14,0-.28.02-.41-.07.07-.14.13-.2.19s-.14.12-.25.2l-.77.59-.23-.31,1.5-1.13h.37v5.53Z"/>
    <path class="cls-8" d="M580.01,535.56c0,.66-.08,1.24-.25,1.73-.17.49-.43.87-.79,1.14-.36.27-.82.4-1.39.4-.12,0-.26,0-.4-.02-.15-.02-.26-.04-.36-.07v-.4c.21.08.46.12.76.12.66,0,1.15-.23,1.47-.68s.49-1.09.52-1.92h-.03c-.11.2-.28.38-.53.54-.24.16-.56.24-.95.24-.49,0-.88-.15-1.17-.45-.29-.3-.43-.71-.43-1.23,0-.37.07-.69.21-.96s.34-.49.59-.64.56-.23.92-.23c.4,0,.73.1,1,.31.27.21.48.49.62.86s.21.78.21,1.26ZM578.18,533.52c-.39,0-.7.12-.93.37-.23.25-.35.61-.35,1.07,0,.41.1.74.31.97.21.23.52.35.93.35.28,0,.53-.06.74-.17.21-.11.37-.26.49-.43.11-.17.17-.34.17-.52,0-.16-.02-.33-.07-.52-.05-.19-.12-.37-.23-.54-.11-.17-.25-.31-.42-.42s-.39-.16-.65-.16Z"/>
    <path class="cls-8" d="M584.43,535.56c0,.66-.08,1.24-.25,1.73-.17.49-.43.87-.79,1.14-.36.27-.82.4-1.39.4-.12,0-.26,0-.4-.02s-.26-.04-.36-.07v-.4c.21.08.46.12.76.12.66,0,1.15-.23,1.47-.68s.49-1.09.52-1.92h-.03c-.11.2-.28.38-.53.54s-.56.24-.95.24c-.49,0-.88-.15-1.17-.45-.29-.3-.43-.71-.43-1.23,0-.37.07-.69.21-.96s.34-.49.59-.64.56-.23.92-.23c.4,0,.73.1,1,.31.27.21.48.49.62.86.14.36.21.78.21,1.26ZM582.61,533.52c-.39,0-.7.12-.93.37-.23.25-.35.61-.35,1.07,0,.41.1.74.31.97.21.23.52.35.93.35.28,0,.53-.06.74-.17.21-.11.38-.26.49-.43s.17-.34.17-.52c0-.16-.02-.33-.07-.52-.05-.19-.12-.37-.23-.54-.11-.17-.25-.31-.42-.42-.17-.11-.39-.16-.65-.16Z"/>
    <path class="cls-8" d="M533.12,543.8c-.45,0-.79.17-1.03.5s-.36.8-.36,1.38.11,1.04.33,1.37c.22.32.57.48,1.06.48.22,0,.45-.03.67-.08s.47-.12.74-.22v.98c-.24.1-.48.17-.72.22-.24.05-.5.07-.8.07-.57,0-1.04-.12-1.41-.35-.37-.24-.64-.57-.81-.99-.18-.43-.26-.92-.26-1.49s.1-1.05.3-1.48c.2-.43.49-.76.88-1.01.38-.24.86-.36,1.41-.36.27,0,.55.04.83.1.28.07.54.16.79.28l-.38.95c-.21-.1-.41-.18-.62-.26s-.41-.11-.62-.11Z"/>
    <path class="cls-8" d="M538.05,548.43l-1.33-4.34h-.03c0,.1.01.26.02.46s.02.43.03.67c.01.24.02.45.02.63v2.57h-1.05v-5.53h1.6l1.31,4.23h.02l1.39-4.23h1.6v5.53h-1.09v-2.62c0-.18,0-.38.01-.6,0-.23.02-.44.02-.65s.01-.36.02-.46h-.03l-1.43,4.33h-1.08Z"/>
    <path class="cls-8" d="M544.74,545.18l1.15-2.28h1.26l-1.84,3.38v2.15h-1.16v-2.12l-1.84-3.42h1.27l1.15,2.28Z"/>
    <path class="cls-8" d="M552.3,548.43h-1.33l-1.45-2.33-.5.36v1.98h-1.17v-5.53h1.17v2.53c.08-.11.16-.22.23-.33.08-.11.15-.22.23-.33l1.5-1.88h1.3l-1.93,2.45,1.95,3.08Z"/>
    <path class="cls-8" d="M552.74,544.76c0-.24.06-.4.19-.5.13-.09.29-.14.47-.14s.34.05.46.14c.13.1.19.26.19.5s-.06.39-.19.49c-.13.1-.28.15-.46.15s-.34-.05-.47-.15c-.13-.1-.19-.26-.19-.49ZM552.74,547.89c0-.24.06-.4.19-.5.13-.1.29-.14.47-.14s.34.05.46.14c.13.1.19.26.19.5s-.06.39-.19.49c-.13.1-.28.15-.46.15s-.34-.05-.47-.15c-.13-.1-.19-.26-.19-.49Z"/>
    <path class="cls-8" d="M574.76,543.22c-.46,0-.84.1-1.17.31s-.57.49-.75.85-.26.79-.26,1.28.08.93.24,1.29c.16.37.39.65.7.85.31.2.7.3,1.16.3.27,0,.52-.02.74-.06.22-.04.44-.09.64-.15v.39c-.19.07-.4.13-.63.17-.23.04-.5.06-.79.06-.56,0-1.02-.12-1.4-.36-.38-.24-.66-.57-.85-1-.19-.43-.28-.93-.28-1.5s.1-1.03.31-1.46.51-.76.91-1c.4-.24.87-.36,1.43-.36s1.03.1,1.46.31l-.18.39c-.4-.2-.83-.29-1.28-.29Z"/>
    <path class="cls-8" d="M580.38,548.43h-3.5v-.37l1.59-1.65c.26-.27.49-.52.67-.74s.32-.43.41-.65.14-.46.14-.73c0-.35-.1-.61-.3-.8-.2-.19-.47-.28-.81-.28-.25,0-.48.04-.7.13-.22.09-.43.21-.64.38l-.24-.31c.23-.19.48-.33.74-.43s.55-.16.84-.16c.48,0,.86.13,1.14.4s.43.62.43,1.06c0,.3-.05.57-.16.82-.11.25-.25.49-.45.73-.19.24-.42.49-.69.76l-1.39,1.42v.02h2.94v.4Z"/>
    <path class="cls-8" d="M586.08,548.43l-1.98-5.05h-.03c0,.14.02.3.02.48,0,.18,0,.38,0,.58v3.98h-.42v-5.53h.68l1.91,4.85h.02l1.93-4.85h.67v5.53h-.45v-4.03c0-.18,0-.35,0-.53,0-.18.01-.34.02-.49h-.02l-2,5.05h-.36Z"/>
    <path class="cls-8" d="M592.28,548.43h-.43v-4.66c0-.14,0-.28.02-.41-.07.07-.14.13-.2.19-.06.05-.14.12-.25.2l-.77.59-.23-.31,1.5-1.13h.37v5.53Z"/>
    <path class="cls-8" d="M598.08,545.65c0,.92-.14,1.63-.43,2.12-.29.49-.74.74-1.35.74s-1.03-.24-1.33-.73c-.3-.49-.45-1.2-.45-2.13,0-.56.06-1.06.17-1.48.12-.43.3-.76.57-1,.26-.24.61-.36,1.04-.36s.77.12,1.03.35c.26.23.45.56.57.99.12.43.18.93.18,1.5ZM594.96,545.65c0,.83.11,1.45.32,1.86.21.41.55.61,1.01.61s.81-.2,1.02-.61.31-1.03.31-1.86c0-.51-.04-.95-.12-1.32s-.22-.65-.41-.84-.46-.29-.79-.29-.6.1-.8.29c-.2.2-.34.48-.42.84s-.12.8-.12,1.31Z"/>
    <path class="cls-8" d="M602.5,545.65c0,.92-.14,1.63-.43,2.12-.29.49-.74.74-1.35.74s-1.03-.24-1.33-.73c-.3-.49-.45-1.2-.45-2.13,0-.56.06-1.06.17-1.48.12-.43.3-.76.57-1,.26-.24.61-.36,1.04-.36s.77.12,1.03.35c.26.23.45.56.57.99.12.43.18.93.18,1.5ZM599.38,545.65c0,.83.11,1.45.32,1.86.21.41.55.61,1.01.61s.81-.2,1.02-.61c.21-.41.31-1.03.31-1.86,0-.51-.04-.95-.12-1.32s-.22-.65-.41-.84c-.19-.19-.46-.29-.79-.29s-.6.1-.8.29-.34.48-.42.84c-.08.37-.12.8-.12,1.31Z"/>
    <path class="cls-8" d="M607.03,545.86l1.58-2.96h.5l-1.84,3.39v2.14h-.45v-2.11l-1.86-3.43h.5l1.58,2.96Z"/>
    <path class="cls-8" d="M611.3,542.82c.47,0,.86.11,1.15.34.29.23.44.54.44.96,0,.34-.11.61-.33.83-.22.21-.5.4-.84.55.4.17.73.36.98.6.25.23.37.54.37.93,0,.32-.08.58-.23.81-.15.22-.36.39-.63.51-.27.12-.57.18-.91.18-.54,0-.97-.13-1.29-.4-.32-.26-.48-.62-.48-1.06,0-.27.06-.5.17-.69.11-.19.27-.36.46-.5.2-.14.42-.25.67-.35-.21-.1-.39-.21-.56-.33s-.3-.27-.4-.44c-.1-.17-.15-.38-.15-.62,0-.27.07-.5.21-.7s.32-.35.56-.45c.24-.1.51-.16.81-.16ZM609.98,547.05c0,.33.11.59.34.79.23.2.55.3.96.3s.74-.1.98-.3c.24-.2.36-.47.36-.83,0-.3-.11-.55-.32-.75-.21-.2-.51-.37-.9-.51l-.17-.06c-.38.14-.69.31-.92.51-.23.2-.34.48-.34.83ZM611.3,543.19c-.33,0-.6.08-.82.25-.22.17-.33.4-.33.7s.11.54.33.72c.22.17.5.32.85.45.35-.14.62-.3.82-.48.2-.18.3-.41.3-.71s-.1-.53-.31-.69c-.21-.16-.49-.24-.84-.24Z"/>
    <path class="cls-8" d="M614.01,546.07c0-.66.08-1.24.25-1.72s.43-.87.78-1.14c.35-.27.81-.4,1.38-.4.28,0,.53.03.73.09v.39c-.09-.04-.2-.06-.33-.08s-.25-.02-.39-.02c-.67,0-1.16.22-1.48.67-.32.45-.5,1.09-.52,1.91h.03c.11-.2.28-.38.52-.54.24-.16.55-.24.95-.24.5,0,.89.15,1.18.45.29.3.43.7.43,1.22,0,.56-.15,1-.45,1.34s-.72.5-1.26.5c-.39,0-.72-.11-1-.31-.27-.21-.48-.5-.62-.86-.14-.36-.21-.78-.21-1.26ZM615.84,548.13c.39,0,.7-.12.93-.38.23-.25.34-.61.34-1.09,0-.4-.1-.72-.31-.95-.21-.23-.52-.35-.93-.35-.28,0-.53.06-.74.17s-.37.26-.48.43c-.11.17-.17.35-.17.52,0,.16.02.33.07.52s.12.37.23.54c.11.17.25.31.42.42.17.11.39.17.65.17Z"/>
    <path class="cls-8" d="M624.53,548.43h-.54l-2.1-2.87-.69.66v2.21h-.45v-5.53h.45v2.88c.1-.12.21-.24.33-.36.11-.12.23-.24.34-.37l2.05-2.15h.56l-2.25,2.36,2.31,3.18Z"/>
    <path class="cls-8" d="M628.45,548.43h-3.5v-.37l1.59-1.65c.26-.27.49-.52.67-.74s.32-.43.41-.65c.09-.22.14-.46.14-.73,0-.35-.1-.61-.3-.8-.2-.19-.47-.28-.81-.28-.25,0-.48.04-.7.13s-.43.21-.64.38l-.24-.31c.23-.19.48-.33.74-.43s.55-.16.84-.16c.48,0,.86.13,1.14.4s.43.62.43,1.06c0,.3-.05.57-.16.82-.11.25-.26.49-.45.73-.19.24-.43.49-.69.76l-1.39,1.42v.02h2.94v.4Z"/>
    <path class="cls-8" d="M532.38,552.58c.75,0,1.31.14,1.67.41.36.27.54.69.54,1.25,0,.25-.05.47-.14.66s-.22.35-.38.48c-.16.13-.33.24-.51.32l1.63,2.41h-1.3l-1.32-2.12h-.63v2.12h-1.17v-5.53h1.61ZM532.3,553.55h-.36v1.5h.38c.39,0,.67-.06.83-.19.17-.13.25-.32.25-.57s-.09-.45-.27-.56c-.18-.11-.46-.17-.84-.17Z"/>
    <path class="cls-8" d="M537.99,555.01h2.19v2.87c-.29.1-.59.18-.91.23s-.67.08-1.06.08c-.83,0-1.46-.24-1.91-.73-.44-.49-.67-1.19-.67-2.12,0-.58.11-1.08.33-1.5s.55-.75.98-.98.96-.35,1.58-.35c.29,0,.58.03.87.09.28.06.54.14.77.25l-.39.94c-.17-.09-.36-.16-.58-.22-.22-.06-.44-.08-.68-.08-.34,0-.64.08-.89.23s-.44.37-.58.66c-.14.28-.21.62-.21.99s.05.68.15.96c.1.28.25.5.47.66.21.16.49.24.83.24.17,0,.3,0,.42-.02s.22-.03.33-.05v-1.16h-1.05v-.98Z"/>
    <path class="cls-8" d="M541.5,552.58h1.72c.73,0,1.29.1,1.67.31.38.21.57.57.57,1.09,0,.31-.07.58-.22.8-.15.22-.36.35-.63.4v.04c.18.04.35.11.5.2s.27.22.36.4c.09.18.13.41.13.7,0,.5-.18.89-.55,1.18s-.86.43-1.48.43h-2.07v-5.53ZM542.67,554.78h.68c.34,0,.58-.05.71-.16.13-.11.2-.26.2-.48s-.08-.36-.23-.46c-.15-.09-.4-.14-.74-.14h-.62v1.23ZM542.67,555.71v1.44h.77c.35,0,.6-.07.74-.21.14-.14.21-.32.21-.55,0-.21-.07-.37-.21-.5s-.4-.19-.77-.19h-.73Z"/>
    <path class="cls-8" d="M546.45,554.45c0-.24.06-.4.19-.5.13-.1.29-.14.47-.14s.34.05.46.14c.13.1.19.26.19.5s-.06.39-.19.49c-.13.1-.28.15-.46.15s-.34-.05-.47-.15c-.13-.1-.19-.26-.19-.49ZM546.45,557.58c0-.24.06-.4.19-.5.13-.1.29-.14.47-.14s.34.05.46.14c.13.1.19.26.19.5s-.06.39-.19.49c-.13.1-.28.15-.46.15s-.34-.05-.47-.15c-.13-.1-.19-.26-.19-.49Z"/>
    <path class="cls-8" d="M573.79,552.58c.66,0,1.16.12,1.49.35.33.23.5.62.5,1.17,0,.42-.11.75-.34.99-.23.24-.51.41-.84.51l1.52,2.51h-.53l-1.41-2.39h-1.32v2.39h-.45v-5.53h1.38ZM573.75,552.99h-.89v2.36h1.05c.45,0,.8-.11,1.04-.32.25-.21.37-.51.37-.91,0-.42-.13-.72-.38-.88-.26-.17-.65-.25-1.18-.25Z"/>
    <path class="cls-8" d="M580.2,558.12h-3.5v-.37l1.59-1.65c.26-.27.49-.52.67-.74.18-.22.32-.43.41-.65.09-.22.14-.46.14-.73,0-.35-.1-.61-.3-.8-.2-.19-.47-.28-.81-.28-.25,0-.48.04-.7.13-.22.09-.43.21-.64.38l-.24-.31c.23-.19.48-.33.74-.43.27-.1.55-.15.84-.15.48,0,.86.13,1.14.39.28.26.43.62.43,1.06,0,.3-.05.57-.16.82-.11.25-.26.49-.45.73-.19.24-.43.49-.69.76l-1.39,1.42v.02h2.94v.4Z"/>
    <path class="cls-8" d="M584.7,555.34c0,.92-.14,1.63-.43,2.12-.29.49-.74.74-1.35.74s-1.03-.24-1.33-.73-.45-1.2-.45-2.13c0-.56.06-1.06.17-1.48.12-.43.3-.76.57-1,.26-.24.61-.36,1.04-.36s.77.12,1.03.35c.26.23.45.56.57.99.12.43.18.93.18,1.5ZM581.58,555.34c0,.83.11,1.45.32,1.86.21.41.55.61,1.01.61s.81-.2,1.02-.61.31-1.03.31-1.86c0-.51-.04-.95-.12-1.32-.08-.37-.22-.65-.41-.84-.19-.19-.46-.29-.79-.29s-.6.1-.8.29c-.2.2-.34.48-.42.84-.08.37-.12.8-.12,1.31Z"/>
    <path class="cls-8" d="M589.44,556.74h-.92v1.38h-.43v-1.38h-2.78v-.36l2.75-3.83h.46v3.78h.92v.4ZM588.09,556.34v-2.05c0-.3,0-.54,0-.71,0-.17,0-.35.01-.53h-.01c-.07.12-.14.23-.2.33-.06.1-.13.21-.22.33l-1.9,2.63h2.32Z"/>
    <path class="cls-8" d="M594.57,555.3h2.01v2.57c-.27.11-.55.19-.85.24-.3.05-.63.08-.98.08-.88,0-1.55-.25-2.01-.75-.46-.5-.69-1.2-.69-2.08,0-.56.11-1.05.34-1.48.22-.43.55-.77.97-1.01s.93-.36,1.53-.36c.3,0,.59.03.86.08.27.06.53.14.77.25l-.19.4c-.47-.22-.96-.33-1.47-.33s-.9.1-1.25.31-.62.5-.81.86c-.19.37-.28.8-.28,1.28,0,.8.2,1.4.59,1.82.4.42.97.62,1.73.62.27,0,.51-.02.72-.06s.4-.09.57-.14v-1.89h-1.56v-.41Z"/>
    <path class="cls-8" d="M601.17,555.34c0,.92-.14,1.63-.43,2.12-.29.49-.74.74-1.35.74s-1.03-.24-1.33-.73c-.3-.49-.45-1.2-.45-2.13,0-.56.06-1.06.17-1.48.12-.43.3-.76.57-1s.61-.36,1.04-.36.77.12,1.03.35.45.56.57.99c.12.43.18.93.18,1.5ZM598.06,555.34c0,.83.11,1.45.32,1.86.21.41.55.61,1.01.61s.81-.2,1.02-.61c.21-.41.31-1.03.31-1.86,0-.51-.04-.95-.12-1.32-.08-.37-.22-.65-.41-.84s-.46-.29-.79-.29-.6.1-.8.29-.34.48-.42.84c-.08.37-.12.8-.12,1.31Z"/>
    <path class="cls-8" d="M604.4,552.58h1.54c.68,0,1.19.11,1.51.32.33.21.49.56.49,1.03,0,.32-.09.59-.28.82-.19.23-.45.37-.8.43v.03c.4.06.71.2.92.42.21.21.31.52.31.91,0,.36-.08.65-.24.88-.16.23-.39.41-.68.52-.29.11-.63.17-1.01.17h-1.75v-5.53ZM604.85,555.03h1.19c.51,0,.87-.09,1.1-.26s.34-.44.34-.78-.12-.61-.36-.77-.63-.23-1.17-.23h-1.08v2.05ZM604.85,555.41v2.32h1.26c1,0,1.5-.4,1.5-1.21,0-.38-.13-.66-.38-.84-.26-.18-.65-.27-1.19-.27h-1.19Z"/>
    <path class="cls-8" d="M610.65,554.77c.56,0,1.01.14,1.34.43s.49.68.49,1.2c0,.56-.18,1-.54,1.32-.36.32-.85.48-1.47.48-.29,0-.55-.03-.79-.08s-.45-.13-.62-.22v-.44c.18.11.4.2.65.26s.51.1.77.1c.47,0,.85-.12,1.13-.35.28-.24.43-.58.43-1.03,0-.4-.12-.72-.37-.94-.25-.22-.62-.33-1.12-.33-.2,0-.39.01-.57.04-.19.03-.36.06-.51.1l-.24-.16.22-2.55h2.68v.4h-2.31l-.16,1.91c.11-.02.25-.05.41-.08s.36-.05.58-.05Z"/>
    <path class="cls-8" d="M615.57,558.12h-.43v-4.66c0-.14,0-.28.02-.41-.07.07-.14.13-.2.19-.06.05-.14.12-.25.2l-.78.59-.23-.31,1.5-1.13h.37v5.53Z"/>
    <path class="cls-8" d="M535.3,567.81h-1.17v-2.39h-2.19v2.39h-1.17v-5.53h1.17v2.17h2.19v-2.17h1.17v5.53Z"/>
    <path class="cls-8" d="M539.88,567.81h-3.19v-5.53h3.19v.96h-2.02v1.22h1.88v.96h-1.88v1.43h2.02v.97Z"/>
    <path class="cls-8" d="M545.51,567.81h-1.34l-1.29-2.09-1.29,2.09h-1.26l1.84-2.85-1.72-2.68h1.29l1.19,1.99,1.17-1.99h1.26l-1.74,2.74,1.87,2.79Z"/>
    <path class="cls-8" d="M545.95,564.14c0-.24.06-.4.19-.5.13-.1.29-.14.47-.14s.34.05.46.14c.13.1.19.26.19.5s-.06.39-.19.49c-.13.1-.28.15-.46.15s-.34-.05-.47-.15c-.13-.1-.19-.26-.19-.49ZM545.95,567.26c0-.24.06-.4.19-.5.13-.1.29-.14.47-.14s.34.05.46.14c.13.1.19.26.19.5s-.06.39-.19.49c-.13.1-.28.15-.46.15s-.34-.05-.47-.15c-.13-.1-.19-.26-.19-.49Z"/>
    <path class="cls-8" d="M575.3,564.33l-.28,1.43h1.12v.36h-1.19l-.33,1.69h-.37l.33-1.69h-1.33l-.33,1.69h-.36l.32-1.69h-1.05v-.36h1.12l.29-1.43h-1.11v-.35h1.17l.33-1.71h.38l-.33,1.71h1.33l.33-1.71h.36l-.33,1.71h1.06v.35h-1.12ZM573.32,565.76h1.33l.28-1.43h-1.33l-.28,1.43Z"/>
    <path class="cls-8" d="M579.77,562.6c-.46,0-.84.1-1.17.31-.33.2-.58.49-.75.85-.17.36-.26.79-.26,1.27s.08.93.24,1.29.39.65.7.85c.31.2.7.3,1.16.3.27,0,.52-.02.74-.06s.44-.09.64-.16v.39c-.19.07-.4.13-.63.17-.23.04-.5.06-.79.06-.56,0-1.02-.12-1.4-.36-.38-.24-.66-.57-.85-1-.19-.43-.28-.93-.28-1.5s.1-1.04.31-1.46c.21-.43.51-.76.91-1,.4-.24.87-.36,1.43-.36s1.03.1,1.46.31l-.18.39c-.4-.2-.83-.29-1.28-.29Z"/>
    <path class="cls-8" d="M584.44,562.6c-.46,0-.84.1-1.17.31-.33.2-.58.49-.75.85-.17.36-.26.79-.26,1.27s.08.93.24,1.29.39.65.7.85c.31.2.7.3,1.16.3.27,0,.52-.02.74-.06s.44-.09.64-.16v.39c-.19.07-.4.13-.63.17-.23.04-.5.06-.79.06-.56,0-1.02-.12-1.4-.36-.38-.24-.66-.57-.85-1-.19-.43-.28-.93-.28-1.5s.1-1.04.31-1.46c.21-.43.51-.76.91-1,.4-.24.87-.36,1.43-.36s1.03.1,1.46.31l-.18.39c-.4-.2-.83-.29-1.28-.29Z"/>
    <path class="cls-8" d="M590.13,565.02c0,.92-.14,1.63-.43,2.12-.29.49-.74.74-1.35.74s-1.03-.24-1.33-.73-.45-1.2-.45-2.13c0-.56.06-1.06.17-1.48.12-.43.3-.76.57-1,.26-.24.61-.36,1.04-.36s.77.12,1.03.35c.26.23.45.56.57.99.12.43.18.93.18,1.5ZM587.02,565.02c0,.83.11,1.45.32,1.86.21.41.55.61,1.01.61s.81-.2,1.02-.61.31-1.03.31-1.86c0-.51-.04-.95-.12-1.32-.08-.37-.22-.65-.41-.84-.19-.19-.46-.29-.79-.29s-.6.1-.8.29c-.2.2-.34.48-.42.84-.08.37-.12.8-.12,1.31Z"/>
    <path class="cls-8" d="M594.56,565.02c0,.92-.14,1.63-.43,2.12-.29.49-.74.74-1.35.74s-1.03-.24-1.33-.73c-.3-.49-.45-1.2-.45-2.13,0-.56.06-1.06.17-1.48.12-.43.3-.76.57-1s.61-.36,1.04-.36.77.12,1.03.35.45.56.57.99c.12.43.18.93.18,1.5ZM591.44,565.02c0,.83.11,1.45.32,1.86.21.41.55.61,1.01.61s.81-.2,1.02-.61c.21-.41.31-1.03.31-1.86,0-.51-.04-.95-.12-1.32-.08-.37-.22-.65-.41-.84s-.46-.29-.79-.29-.6.1-.8.29-.34.48-.42.84c-.08.37-.12.8-.12,1.31Z"/>
    <path class="cls-8" d="M598.73,563.55c0,.37-.11.67-.33.9-.22.23-.5.38-.84.44v.03c.43.05.76.19.99.42s.34.54.34.93c0,.48-.17.86-.5,1.16s-.84.45-1.51.45c-.3,0-.58-.03-.83-.08-.26-.05-.49-.13-.7-.23v-.43c.21.1.46.19.73.26.27.07.54.1.81.1.53,0,.92-.11,1.17-.34s.38-.53.38-.91c0-.4-.15-.69-.45-.86-.3-.17-.7-.26-1.2-.26h-.59v-.39h.6c.43,0,.78-.1,1.06-.3.28-.2.42-.49.42-.87,0-.33-.11-.57-.32-.74-.21-.17-.49-.25-.84-.25-.29,0-.56.04-.79.13-.23.09-.47.21-.69.36l-.22-.31c.21-.17.46-.3.74-.41s.6-.16.96-.16c.52,0,.92.12,1.2.37.28.25.43.57.43.99Z"/>
    <path class="cls-8" d="M603.15,563.55c0,.37-.11.67-.33.9s-.5.38-.84.44v.03c.43.05.76.19.99.42.23.23.34.54.34.93,0,.48-.17.86-.5,1.16s-.84.45-1.51.45c-.3,0-.58-.03-.83-.08s-.49-.13-.7-.23v-.43c.21.1.45.19.73.26.27.07.54.1.81.1.53,0,.92-.11,1.17-.34.25-.22.38-.53.38-.91,0-.4-.15-.69-.45-.86-.3-.17-.7-.26-1.2-.26h-.59v-.39h.6c.43,0,.78-.1,1.06-.3.28-.2.42-.49.42-.87,0-.33-.11-.57-.32-.74-.21-.17-.49-.25-.85-.25-.29,0-.56.04-.79.13-.24.09-.47.21-.69.36l-.23-.31c.21-.17.46-.3.74-.41s.6-.16.96-.16c.52,0,.92.12,1.2.37.28.25.43.57.43.99Z"/>
  </g>
  <text class="cls-1" transform="translate(15.15 -45.65)"><tspan x="0" y="0">RGB Mode</tspan></text>
  <g>
    <g>
      <path class="cls-2" d="M71.88,46.83l-21.33,129.22h-18.72L53.25,46.83h18.63Z"/>
      <path class="cls-2" d="M175.29,73.12l-17.06,102.92h-16.51l-36.82-70.11h-.9l-11.6,70.11h-18.72l17.06-102.92h16.79l36.68,70.11h.97l11.6-70.11h18.51Z"/>
      <path class="cls-2" d="M214.45,176.05c10.5,0,19.77-2,27.8-6.01,8.04-4.01,14.62-9.79,19.76-17.34,5.14-7.55,8.58-16.6,10.33-27.15,1.8-10.87,1.33-20.22-1.38-28.04-2.72-7.83-7.45-13.85-14.2-18.06-6.75-4.22-15.23-6.32-25.45-6.32h-35.09l-17.06,102.92h35.3ZM254.24,123.41c-1.34,8.06-3.7,14.79-7.08,20.2-3.38,5.41-7.72,9.48-13.02,12.19-5.3,2.72-11.54,4.08-18.72,4.08h-14.88l11.66-70.6h16.35c6.95,0,12.55,1.24,16.79,3.73,4.24,2.49,7.1,6.25,8.6,11.29,1.5,5.04,1.6,11.41.31,19.1Z"/>
      <path class="cls-2" d="M487.95,88.8c-1.93-4.93-5.37-8.77-10.29-11.54-4.93-2.76-11.33-4.14-19.2-4.14h-38.68l-17.06,102.92h18.72l6.24-37.72h18.91l13.95,37.72h20.79l-15.5-40.76c.74-.28,1.46-.57,2.17-.89,5.85-2.62,10.58-6.37,14.19-11.23,3.62-4.86,5.95-10.56,7.01-17.1,1.11-6.58.69-12.34-1.24-17.27ZM470.2,106.07c-.6,3.64-1.81,6.71-3.63,9.22-1.82,2.51-4.31,4.41-7.46,5.7-3.15,1.29-7.06,1.93-11.71,1.93h-17.19l5.65-34.19h17.13c6.91,0,11.72,1.52,14.44,4.56,2.72,3.04,3.64,7.3,2.76,12.78Z"/>
      <path class="cls-2" d="M564.34,176.05h19.96l-19.2-102.92h-23l-53.33,102.92h19.82l12.77-25.42h38.68l4.29,25.42ZM528.87,135.71l20.83-41.45h.83l7,41.45h-28.66Z"/>
      <path class="cls-2" d="M613.05,73.12h22.86l18.24,74.53h1.24l42.83-74.53h22.73l-16.99,102.92h-17.96l11.81-70.73h-.9l-40.2,70.39h-13.33l-16.65-70.53h-.9l-11.95,70.87h-17.89l17.06-102.92Z"/>
      <path class="cls-2" d="M790.35,176.05h19.96l-19.2-102.92h-23l-53.33,102.92h19.82l12.77-25.42h38.68l4.29,25.42ZM754.88,135.71l20.83-41.45h.83l7,41.45h-28.66Z"/>
    </g>
    <g>
      <path class="cls-4" d="M373.44,78.23c25.76,4.49,25.97,41.83,16.44,62.96-4.35,9.63-11.44,18.36-21.09,24.5-10.71,6.81-25.81,11.93-40.63,9.62,4.21,3.95,14.46,5.88,23.88,4.65-28.47,8.48-50.31-12.12-50.55-38.14-.07-7.58,2.27-16.25,5.9-23.26-4.29,17.74,1.12,36.6,13.33,44.04,4.04,2.46,8.74,3.92,15.81,3.41,13.42-.96,25.04-8.83,33.18-17.99,8.69-9.77,14.63-21.17,15.51-35.36.87-13.96-3.47-27.07-11.78-34.43Z"/>
      <path class="cls-3" d="M360.1,153.29c-6.62,4.47-17.53,10.51-29.46,8.06-11.04-2.26-17.01-12.26-20.78-21.71,3.9,7.23,10.9,14.77,20.47,17.06,10.35,2.47,21.46-.49,29.77-3.41Z"/>
      <g>
        <path class="cls-2" d="M299.32,102.11c0-.06.02-.1.03-.14-.04.05-.08.1-.12.14h.09Z"/>
        <path class="cls-2" d="M300.75,100.33c-.47.54-.94,1.08-1.4,1.64-.01.04-.03.09-.03.14h-.09c-6.38,7.81-11.19,17.11-14.19,27.55-1.2,9.88-.42,20.1,3.11,29.51-1.92-12.8-.73-26.9,4.65-35.04-3.4,14.91-2.03,33.06,5.27,42.8,5.46,7.28,13.87,11.04,22.02,13.95-13.13-6.25-22.95-18.7-22.95-36.28,0-14.47,6.35-27.31,13.96-35.67,8.29-9.11,19.24-15.23,31.01-18.92-7.77-.72-15.16,1-20.78,3.41,11.04-8.61,25.39-13.9,43.42-15.5-28.52-4.49-50.24,8.58-64.01,22.4Z"/>
        <path class="cls-2" d="M299.76,101.33c-.25.26-.51.52-.76.78h.23s.08-.1.12-.14c.06-.19.23-.27.28-.47.05-.06.09-.11.14-.17Z"/>
        <path class="cls-2" d="M299.62,101.49c-.05.2-.21.29-.28.47.46-.56.93-1.1,1.4-1.64-.33.33-.66.67-.99,1-.04.06-.09.11-.14.17Z"/>
      </g>
      <path class="cls-9" d="M380.52,74.66c-11.17-.87-11.23-1.29-16.93-1.41-5.84-.12-11.12.51-17.39,1.94-11.85,2.69-18.69,5.51-27.62,10.61-16.42,9.37-28.14,24.93-33.59,44.38,1.58-17.7,8.85-31.8,19.54-42.49,10.44-10.43,23.97-18.47,41.87-19.85,13.31-1.03,25.28,1.41,34.12,6.82Z"/>
    </g>
    <path class="cls-2" d="M38.28,202.74l5.93,33.46h.41l17-33.46h6.68l-21.6,41.11h-7.15l-7.97-41.11h6.7Z"/>
    <path class="cls-2" d="M136.57,243.85l6.79-41.11h25.79l-.88,5.32h-19.59l-2.07,12.55h18.21l-.88,5.32h-18.21l-2.1,12.58h19.81l-.88,5.33h-25.99Z"/>
    <path class="cls-2" d="M279.74,202.74l-6.81,41.11h-5.71l-15.86-30.13h-.39l-4.99,30.13h-6.21l6.79-41.11h5.79l15.84,30.18h.41l4.99-30.18h6.15Z"/>
    <path class="cls-2" d="M354.97,208.07l.94-5.32h31.78l-.88,5.32h-12.8l-5.96,35.78h-6.18l5.96-35.78h-12.86Z"/>
    <path class="cls-2" d="M490.26,202.74h6.18l-4.44,27.04c-.46,2.87-1.56,5.41-3.29,7.63-1.73,2.22-3.93,3.95-6.59,5.21-2.67,1.26-5.64,1.89-8.91,1.89s-6.06-.63-8.29-1.89c-2.23-1.26-3.84-3-4.82-5.21-.97-2.22-1.22-4.76-.74-7.63l4.44-27.04h6.21l-4.38,26.54c-.3,1.86-.15,3.5.42,4.94.58,1.43,1.56,2.57,2.92,3.39,1.37.83,3.1,1.25,5.17,1.27,2.1-.02,3.97-.44,5.6-1.27,1.63-.83,2.98-1.96,4.04-3.39,1.06-1.44,1.73-3.08,2.03-4.94l4.44-26.54Z"/>
    <path class="cls-2" d="M600.91,208.95c-.72-1.93-2.04-3.45-3.96-4.55-1.92-1.1-4.47-1.66-7.66-1.66h-14.68l-6.79,41.11h6.21l2.58-15.56h8.4c.14,0,.26-.02.39-.02l5.79,15.58h7.04l-6.35-16.63c.45-.16.91-.32,1.33-.52,2.28-1.06,4.11-2.54,5.49-4.44,1.38-1.9,2.27-4.11,2.68-6.61.4-2.54.25-4.77-.47-6.71ZM595.11,215.66c-.24,1.53-.74,2.84-1.52,3.93-.77,1.1-1.83,1.93-3.19,2.51-1.35.58-3.04.88-5.06.9h-7.85l2.48-14.93h7.78c3.05,0,5.14.68,6.26,2.03s1.49,3.2,1.1,5.56Z"/>
    <path class="cls-2" d="M673.99,243.85l6.79-41.11h25.79l-.88,5.32h-19.59l-2.07,12.55h18.21l-.88,5.32h-18.21l-2.1,12.58h19.81l-.88,5.33h-25.99Z"/>
    <path class="cls-2" d="M790.4,244.51c-3.07,0-5.65-.48-7.75-1.45-2.1-.97-3.63-2.35-4.61-4.15-.97-1.8-1.31-3.95-1.02-6.43h6.21c-.13,1.49.14,2.73.83,3.71s1.65,1.72,2.91,2.19,2.68.72,4.26.72c1.77,0,3.38-.28,4.84-.84s2.67-1.34,3.63-2.35c.96-1,1.54-2.16,1.74-3.49.22-1.21.05-2.21-.51-2.99-.56-.78-1.39-1.43-2.5-1.93-1.11-.51-2.36-.94-3.75-1.31l-4.66-1.32c-3.15-.92-5.53-2.25-7.15-3.99-1.62-1.74-2.2-4.03-1.74-6.88.4-2.37,1.39-4.44,2.97-6.21,1.57-1.77,3.54-3.14,5.91-4.12,2.36-.98,4.92-1.48,7.68-1.48s5.14.49,7.09,1.48c1.95.98,3.4,2.35,4.35,4.1.95,1.75,1.27,3.75.98,6.01h-5.99c.02-2-.63-3.54-1.94-4.62-1.31-1.07-3.15-1.61-5.5-1.61-1.67,0-3.17.26-4.5.79s-2.4,1.25-3.21,2.16c-.82.92-1.33,1.98-1.53,3.17-.17.97-.07,1.81.28,2.51s.86,1.28,1.53,1.75c.67.47,1.42.86,2.25,1.17.83.31,1.63.57,2.4.77l3.81,1.08c1.25.31,2.52.74,3.81,1.3,1.29.55,2.44,1.27,3.46,2.17,1.02.89,1.79,2,2.3,3.32s.62,2.91.3,4.77c-.39,2.3-1.32,4.35-2.81,6.16-1.49,1.81-3.45,3.24-5.88,4.28-2.43,1.04-5.25,1.56-8.47,1.56Z"/>
  </g>
</svg>